M48
; DRILL file KiCad 10.0.4 date 2026-08-09T17:48:33
; FORMAT={-:-/ absolute / metric / decimal}
; #@! TF.CreationDate,2026-08-09T17:48:33+05:30
; #@! TF.GenerationSoftware,Kicad,Pcbnew,10.0.4
; #@! TF.FileFunction,MixedPlating,1,2
FMAT,2
METRIC
; #@! TA.AperFunction,Plated,PTH,ComponentDrill
T1C0.700
; #@! TA.AperFunction,Plated,PTH,ComponentDrill
T2C0.800
; #@! TA.AperFunction,Plated,PTH,ComponentDrill
T3C0.900
; #@! TA.AperFunction,Plated,PTH,ComponentDrill
T4C1.000
; #@! TA.AperFunction,Plated,PTH,ComponentDrill
T5C1.100
; #@! TA.AperFunction,Plated,PTH,ComponentDrill
T6C1.200
; #@! TA.AperFunction,Plated,PTH,ComponentDrill
T7C1.300
; #@! TA.AperFunction,Plated,PTH,ComponentDrill
T8C2.200
%
G90
G05
T1
X135.75Y-100.0
X135.75Y-107.62
X139.0Y-100.0
X139.0Y-107.62
X152.5Y-93.25
X152.5Y-100.87
T2
X155.63Y-93.88
X155.63Y-96.42
X155.63Y-98.96
X155.63Y-101.5
X156.25Y-108.0
X161.25Y-108.0
X163.25Y-93.88
X163.25Y-96.42
X163.25Y-98.96
X163.25Y-101.5
X166.0Y-103.0
X166.0Y-108.0
T3
X128.21Y-107.5
X130.75Y-107.5
T4
X139.5Y-87.382
X139.5Y-92.382
T5
X144.5Y-95.84
X144.5Y-106.0
X149.0Y-95.84
X149.0Y-106.0
X168.75Y-90.09
X168.75Y-100.25
X169.46Y-84.7
X172.0Y-84.7
X174.54Y-84.7
T6
X150.875Y-84.225
X155.875Y-84.225
X160.875Y-84.225
T7
X129.0Y-93.75
X129.0Y-98.75
X177.25Y-92.5
X177.25Y-97.5
T8
X123.5Y-82.25
X123.5Y-111.0
X183.75Y-82.25
X183.75Y-111.0
M30
