%TF.GenerationSoftware,KiCad,Pcbnew,10.0.4*%
%TF.CreationDate,2026-08-09T17:48:30+05:30*%
%TF.ProjectId,DC Motor Speed Controller,4443204d-6f74-46f7-9220-537065656420,rev?*%
%TF.SameCoordinates,Original*%
%TF.FileFunction,Copper,L2,Bot*%
%TF.FilePolarity,Positive*%
%FSLAX46Y46*%
G04 Gerber Fmt 4.6, Leading zero omitted, Abs format (unit mm)*
G04 Created by KiCad (PCBNEW 10.0.4) date 2026-08-09 17:48:30*
%MOMM*%
%LPD*%
G01*
G04 APERTURE LIST*
G04 Aperture macros list*
%AMRoundRect*
0 Rectangle with rounded corners*
0 $1 Rounding radius*
0 $2 $3 $4 $5 $6 $7 $8 $9 X,Y pos of 4 corners*
0 Add a 4 corners polygon primitive as box body*
4,1,4,$2,$3,$4,$5,$6,$7,$8,$9,$2,$3,0*
0 Add four circle primitives for the rounded corners*
1,1,$1+$1,$2,$3*
1,1,$1+$1,$4,$5*
1,1,$1+$1,$6,$7*
1,1,$1+$1,$8,$9*
0 Add four rect primitives between the rounded corners*
20,1,$1+$1,$2,$3,$4,$5,0*
20,1,$1+$1,$4,$5,$6,$7,0*
20,1,$1+$1,$6,$7,$8,$9,0*
20,1,$1+$1,$8,$9,$2,$3,0*%
G04 Aperture macros list end*
%TA.AperFunction,ComponentPad*%
%ADD10C,1.600000*%
%TD*%
%TA.AperFunction,ComponentPad*%
%ADD11RoundRect,0.250001X-1.149999X1.149999X-1.149999X-1.149999X1.149999X-1.149999X1.149999X1.149999X0*%
%TD*%
%TA.AperFunction,ComponentPad*%
%ADD12C,2.800000*%
%TD*%
%TA.AperFunction,ComponentPad*%
%ADD13RoundRect,0.250001X1.149999X-1.149999X1.149999X1.149999X-1.149999X1.149999X-1.149999X-1.149999X0*%
%TD*%
%TA.AperFunction,ComponentPad*%
%ADD14C,3.800000*%
%TD*%
%TA.AperFunction,ComponentPad*%
%ADD15C,1.400000*%
%TD*%
%TA.AperFunction,ComponentPad*%
%ADD16R,1.800000X1.800000*%
%TD*%
%TA.AperFunction,ComponentPad*%
%ADD17C,1.800000*%
%TD*%
%TA.AperFunction,ComponentPad*%
%ADD18RoundRect,0.249999X-0.850001X0.850001X-0.850001X-0.850001X0.850001X-0.850001X0.850001X0.850001X0*%
%TD*%
%TA.AperFunction,ComponentPad*%
%ADD19C,2.200000*%
%TD*%
%TA.AperFunction,ComponentPad*%
%ADD20RoundRect,0.249999X0.850001X-0.850001X0.850001X0.850001X-0.850001X0.850001X-0.850001X-0.850001X0*%
%TD*%
%TA.AperFunction,ComponentPad*%
%ADD21R,1.905000X2.000000*%
%TD*%
%TA.AperFunction,ComponentPad*%
%ADD22O,1.905000X2.000000*%
%TD*%
%TA.AperFunction,ComponentPad*%
%ADD23RoundRect,0.250000X-0.750000X0.750000X-0.750000X-0.750000X0.750000X-0.750000X0.750000X0.750000X0*%
%TD*%
%TA.AperFunction,ComponentPad*%
%ADD24C,2.000000*%
%TD*%
%TA.AperFunction,ComponentPad*%
%ADD25R,3.000000X3.000000*%
%TD*%
%TA.AperFunction,ComponentPad*%
%ADD26C,3.000000*%
%TD*%
%TA.AperFunction,ComponentPad*%
%ADD27RoundRect,0.250000X-0.550000X-0.550000X0.550000X-0.550000X0.550000X0.550000X-0.550000X0.550000X0*%
%TD*%
%TA.AperFunction,Conductor*%
%ADD28C,0.500000*%
%TD*%
%TA.AperFunction,Conductor*%
%ADD29C,1.000000*%
%TD*%
%TA.AperFunction,Conductor*%
%ADD30C,0.300000*%
%TD*%
G04 APERTURE END LIST*
D10*
%TO.P,C1,1*%
%TO.N,Net-(U1-THRES)*%
X161250000Y-108000000D03*
%TO.P,C1,2*%
%TO.N,GND*%
X156250000Y-108000000D03*
%TD*%
D11*
%TO.P,J2,1,Pin_1_1*%
%TO.N,Net-(D3-K)*%
X177250000Y-92500000D03*
D12*
%TO.P,J2,2,Pin_2_2*%
%TO.N,Net-(D3-A)*%
X177250000Y-97500000D03*
%TD*%
D13*
%TO.P,J1,1,Pin_1_1*%
%TO.N,GND*%
X129000000Y-98750000D03*
D12*
%TO.P,J1,2,Pin_2_2*%
%TO.N,Net-(D3-K)*%
X129000000Y-93750000D03*
%TD*%
D14*
%TO.P,REF\u002A\u002A,1*%
%TO.N,N/C*%
X183750000Y-111000000D03*
%TD*%
D15*
%TO.P,R3,1*%
%TO.N,Net-(D3-K)*%
X139000000Y-100000000D03*
%TO.P,R3,2*%
%TO.N,Net-(D4-A)*%
X139000000Y-107620000D03*
%TD*%
D16*
%TO.P,D4,1,K_1*%
%TO.N,GND*%
X128210000Y-107500000D03*
D17*
%TO.P,D4,2,A_2*%
%TO.N,Net-(D4-A)*%
X130750000Y-107500000D03*
%TD*%
D14*
%TO.P,REF\u002A\u002A,1*%
%TO.N,N/C*%
X183750000Y-82250000D03*
%TD*%
D18*
%TO.P,D1,1,K_1*%
%TO.N,Net-(D1-K)*%
X144500000Y-95840000D03*
D19*
%TO.P,D1,2,A_2*%
%TO.N,Net-(D1-A)*%
X144500000Y-106000000D03*
%TD*%
D14*
%TO.P,REF\u002A\u002A,1*%
%TO.N,N/C*%
X123500000Y-82250000D03*
%TD*%
D10*
%TO.P,C2,1*%
%TO.N,Net-(U1-CONT)*%
X166000000Y-103000000D03*
%TO.P,C2,2*%
%TO.N,GND*%
X166000000Y-108000000D03*
%TD*%
D20*
%TO.P,D2,1,K_1*%
%TO.N,Net-(D1-A)*%
X149000000Y-106000000D03*
D19*
%TO.P,D2,2,A_2*%
%TO.N,Net-(D2-A)*%
X149000000Y-95840000D03*
%TD*%
D21*
%TO.P,Q1,1,B_1*%
%TO.N,Net-(Q1-B)*%
X169460000Y-84700000D03*
D22*
%TO.P,Q1,2,C_2*%
%TO.N,Net-(D3-A)*%
X172000000Y-84700000D03*
%TO.P,Q1,3,E_3*%
%TO.N,GND*%
X174540000Y-84700000D03*
%TD*%
D23*
%TO.P,C3,1*%
%TO.N,Net-(D3-K)*%
X139500000Y-87382323D03*
D24*
%TO.P,C3,2*%
%TO.N,GND*%
X139500000Y-92382323D03*
%TD*%
D18*
%TO.P,D3,1,K_1*%
%TO.N,Net-(D3-K)*%
X168750000Y-90090000D03*
D19*
%TO.P,D3,2,A_2*%
%TO.N,Net-(D3-A)*%
X168750000Y-100250000D03*
%TD*%
D15*
%TO.P,R2,1*%
%TO.N,Net-(U1-OUT)*%
X152500000Y-100870000D03*
%TO.P,R2,2*%
%TO.N,Net-(Q1-B)*%
X152500000Y-93250000D03*
%TD*%
D25*
%TO.P,100k1,1,1_1*%
%TO.N,Net-(D2-A)*%
X160875000Y-84225000D03*
D26*
%TO.P,100k1,2,2_2*%
%TO.N,Net-(U1-THRES)*%
X155875000Y-84225000D03*
%TO.P,100k1,3,3_3*%
%TO.N,Net-(D1-K)*%
X150875000Y-84225000D03*
%TD*%
D15*
%TO.P,R1,1*%
%TO.N,Net-(D3-K)*%
X135750000Y-100000000D03*
%TO.P,R1,2*%
%TO.N,Net-(D1-A)*%
X135750000Y-107620000D03*
%TD*%
D27*
%TO.P,U1,1,GND_1*%
%TO.N,GND*%
X155630000Y-93880000D03*
D10*
%TO.P,U1,2,TRIG_2*%
%TO.N,Net-(U1-THRES)*%
X155630000Y-96420000D03*
%TO.P,U1,3,OUT_3*%
%TO.N,Net-(U1-OUT)*%
X155630000Y-98960000D03*
%TO.P,U1,4,~{RST}_4*%
%TO.N,Net-(D3-K)*%
X155630000Y-101500000D03*
%TO.P,U1,5,CONT_5*%
%TO.N,Net-(U1-CONT)*%
X163250000Y-101500000D03*
%TO.P,U1,6,THRES_6*%
%TO.N,Net-(U1-THRES)*%
X163250000Y-98960000D03*
%TO.P,U1,7,DISCH_7*%
%TO.N,Net-(D1-A)*%
X163250000Y-96420000D03*
%TO.P,U1,8,VCC_8*%
%TO.N,Net-(D3-K)*%
X163250000Y-93880000D03*
%TD*%
D14*
%TO.P,REF\u002A\u002A,1*%
%TO.N,N/C*%
X123500000Y-111000000D03*
%TD*%
%TO.N,Net-(U1-THRES)*%
D28*
X163250000Y-98960000D02*
X161250000Y-100960000D01*
X154660000Y-97390000D02*
X155630000Y-96420000D01*
X147450000Y-96482032D02*
X148357968Y-97390000D01*
X147450000Y-92650000D02*
X147450000Y-96482032D01*
X161250000Y-100960000D02*
X161250000Y-108000000D01*
X148357968Y-97390000D02*
X154660000Y-97390000D01*
X155875000Y-84225000D02*
X147450000Y-92650000D01*
%TO.N,Net-(D3-K)*%
D29*
X135367677Y-87382323D02*
X139500000Y-87382323D01*
X140000000Y-100000000D02*
X139000000Y-100000000D01*
D28*
X168750000Y-90090000D02*
X164960000Y-93880000D01*
D29*
X155630000Y-101500000D02*
X153880000Y-103250000D01*
X125750000Y-100500000D02*
X125750000Y-94750000D01*
D30*
X163250000Y-93880000D02*
X155630000Y-101500000D01*
D29*
X129000000Y-93750000D02*
X135367677Y-87382323D01*
D28*
X164960000Y-93880000D02*
X163250000Y-93880000D01*
D29*
X127000000Y-101750000D02*
X125750000Y-100500000D01*
X125750000Y-94750000D02*
X126750000Y-93750000D01*
X140500000Y-102000000D02*
X140500000Y-100500000D01*
X134000000Y-101750000D02*
X127000000Y-101750000D01*
X177250000Y-92500000D02*
X171160000Y-92500000D01*
X135750000Y-100000000D02*
X134000000Y-101750000D01*
X126750000Y-93750000D02*
X129000000Y-93750000D01*
X153880000Y-103250000D02*
X141750000Y-103250000D01*
X171160000Y-92500000D02*
X168750000Y-90090000D01*
X139000000Y-100000000D02*
X135750000Y-100000000D01*
X140500000Y-100500000D02*
X140000000Y-100000000D01*
X141750000Y-103250000D02*
X140500000Y-102000000D01*
%TO.N,Net-(D3-A)*%
X177250000Y-97500000D02*
X171500000Y-97500000D01*
X171500000Y-97500000D02*
X168750000Y-100250000D01*
X177250000Y-97500000D02*
X179750000Y-95000000D01*
X178500000Y-88500000D02*
X175800000Y-88500000D01*
X179750000Y-89750000D02*
X178500000Y-88500000D01*
X179750000Y-95000000D02*
X179750000Y-89750000D01*
X175800000Y-88500000D02*
X172000000Y-84700000D01*
%TO.N,Net-(D4-A)*%
D28*
X137850000Y-108770000D02*
X132020000Y-108770000D01*
X132020000Y-108770000D02*
X130750000Y-107500000D01*
X139000000Y-107620000D02*
X137850000Y-108770000D01*
%TO.N,Net-(D1-K)*%
X150875000Y-87375000D02*
X150875000Y-84225000D01*
X144500000Y-93750000D02*
X150875000Y-87375000D01*
X144500000Y-95840000D02*
X144500000Y-93750000D01*
%TO.N,Net-(D1-A)*%
X163250000Y-96420000D02*
X153670000Y-106000000D01*
X135750000Y-107620000D02*
X137370000Y-106000000D01*
X144500000Y-106000000D02*
X149000000Y-106000000D01*
X153670000Y-106000000D02*
X149000000Y-106000000D01*
X137370000Y-106000000D02*
X144500000Y-106000000D01*
%TO.N,Net-(U1-CONT)*%
X163250000Y-101500000D02*
X164500000Y-101500000D01*
X164500000Y-101500000D02*
X166000000Y-103000000D01*
%TO.N,Net-(D2-A)*%
X156034366Y-87250000D02*
X160750000Y-87250000D01*
X149000000Y-94284366D02*
X156034366Y-87250000D01*
X160875000Y-87125000D02*
X160875000Y-84225000D01*
X149000000Y-95840000D02*
X149000000Y-94284366D01*
X160750000Y-87250000D02*
X160875000Y-87125000D01*
%TO.N,Net-(Q1-B)*%
D30*
X154500000Y-91250000D02*
X152500000Y-93250000D01*
X165750000Y-91250000D02*
X154500000Y-91250000D01*
X166500000Y-87660000D02*
X166500000Y-90500000D01*
X166500000Y-90500000D02*
X165750000Y-91250000D01*
X169460000Y-84700000D02*
X166500000Y-87660000D01*
%TO.N,Net-(U1-OUT)*%
X155630000Y-98960000D02*
X154410000Y-98960000D01*
X154410000Y-98960000D02*
X152500000Y-100870000D01*
%TD*%
%TA.AperFunction,Conductor*%
%TO.N,GND*%
G36*
X165645809Y-91920185D02*
G01*
X165691564Y-91972989D01*
X165701508Y-92042147D01*
X165672483Y-92105703D01*
X165666451Y-92112181D01*
X164685451Y-93093181D01*
X164624128Y-93126666D01*
X164597770Y-93129500D01*
X164375418Y-93129500D01*
X164308379Y-93109815D01*
X164275100Y-93078385D01*
X164241971Y-93032787D01*
X164241967Y-93032782D01*
X164097213Y-92888028D01*
X163931613Y-92767715D01*
X163931612Y-92767714D01*
X163931610Y-92767713D01*
X163872675Y-92737684D01*
X163749223Y-92674781D01*
X163554534Y-92611522D01*
X163379995Y-92583878D01*
X163352352Y-92579500D01*
X163147648Y-92579500D01*
X163123329Y-92583351D01*
X162945465Y-92611522D01*
X162750776Y-92674781D01*
X162568386Y-92767715D01*
X162402786Y-92888028D01*
X162258028Y-93032786D01*
X162137715Y-93198386D01*
X162044781Y-93380776D01*
X161981522Y-93575465D01*
X161949500Y-93777648D01*
X161949500Y-93982351D01*
X161977654Y-94160111D01*
X161968699Y-94229405D01*
X161942862Y-94267190D01*
X157142181Y-99067872D01*
X157080858Y-99101357D01*
X157011166Y-99096373D01*
X156955233Y-99054501D01*
X156930816Y-98989037D01*
X156930500Y-98980191D01*
X156930500Y-98857648D01*
X156898477Y-98655465D01*
X156859926Y-98536819D01*
X156835220Y-98460781D01*
X156835218Y-98460778D01*
X156835218Y-98460776D01*
X156795860Y-98383533D01*
X156742287Y-98278390D01*
X156734556Y-98267749D01*
X156621971Y-98112786D01*
X156477213Y-97968028D01*
X156311614Y-97847715D01*
X156305006Y-97844348D01*
X156218917Y-97800483D01*
X156168123Y-97752511D01*
X156151328Y-97684690D01*
X156173865Y-97618555D01*
X156218917Y-97579516D01*
X156311610Y-97532287D01*
X156428572Y-97447310D01*
X156477213Y-97411971D01*
X156477215Y-97411968D01*
X156477219Y-97411966D01*
X156621966Y-97267219D01*
X156621968Y-97267215D01*
X156621971Y-97267213D01*
X156720458Y-97131655D01*
X156742287Y-97101610D01*
X156835220Y-96919219D01*
X156898477Y-96724534D01*
X156930500Y-96522352D01*
X156930500Y-96317648D01*
X156898477Y-96115466D01*
X156835220Y-95920781D01*
X156835218Y-95920778D01*
X156835218Y-95920776D01*
X156801503Y-95854607D01*
X156742287Y-95738390D01*
X156734556Y-95727749D01*
X156621971Y-95572786D01*
X156477217Y-95428032D01*
X156477212Y-95428028D01*
X156383051Y-95359616D01*
X156340385Y-95304286D01*
X156334406Y-95234673D01*
X156367012Y-95172878D01*
X156416933Y-95141592D01*
X156499117Y-95114359D01*
X156499124Y-95114356D01*
X156648345Y-95022315D01*
X156772315Y-94898345D01*
X156864356Y-94749124D01*
X156864358Y-94749119D01*
X156919505Y-94582697D01*
X156919506Y-94582690D01*
X156929999Y-94479986D01*
X156930000Y-94479973D01*
X156930000Y-94130000D01*
X155945686Y-94130000D01*
X155950080Y-94125606D01*
X156002741Y-94034394D01*
X156030000Y-93932661D01*
X156030000Y-93827339D01*
X156002741Y-93725606D01*
X155950080Y-93634394D01*
X155945686Y-93630000D01*
X156929999Y-93630000D01*
X156929999Y-93280028D01*
X156929998Y-93280013D01*
X156919505Y-93177302D01*
X156864358Y-93010880D01*
X156864356Y-93010875D01*
X156772315Y-92861654D01*
X156648345Y-92737684D01*
X156499124Y-92645643D01*
X156499119Y-92645641D01*
X156332697Y-92590494D01*
X156332690Y-92590493D01*
X156229986Y-92580000D01*
X155880000Y-92580000D01*
X155880000Y-93564314D01*
X155875606Y-93559920D01*
X155784394Y-93507259D01*
X155682661Y-93480000D01*
X155577339Y-93480000D01*
X155475606Y-93507259D01*
X155384394Y-93559920D01*
X155380000Y-93564314D01*
X155380000Y-92580000D01*
X155030028Y-92580000D01*
X155030012Y-92580001D01*
X154927302Y-92590494D01*
X154760880Y-92645641D01*
X154760875Y-92645643D01*
X154611654Y-92737684D01*
X154487684Y-92861654D01*
X154395643Y-93010875D01*
X154395641Y-93010880D01*
X154340494Y-93177302D01*
X154340493Y-93177309D01*
X154330000Y-93280013D01*
X154330000Y-93630000D01*
X155314314Y-93630000D01*
X155309920Y-93634394D01*
X155257259Y-93725606D01*
X155230000Y-93827339D01*
X155230000Y-93932661D01*
X155257259Y-94034394D01*
X155309920Y-94125606D01*
X155314314Y-94130000D01*
X154330001Y-94130000D01*
X154330001Y-94479986D01*
X154340494Y-94582697D01*
X154395641Y-94749119D01*
X154395643Y-94749124D01*
X154487684Y-94898345D01*
X154611654Y-95022315D01*
X154760875Y-95114356D01*
X154760882Y-95114359D01*
X154843067Y-95141592D01*
X154900512Y-95181364D01*
X154927336Y-95245880D01*
X154915021Y-95314656D01*
X154876949Y-95359616D01*
X154782787Y-95428028D01*
X154782782Y-95428032D01*
X154638028Y-95572786D01*
X154517715Y-95738386D01*
X154424781Y-95920776D01*
X154361522Y-96115465D01*
X154329500Y-96317648D01*
X154329500Y-96515500D01*
X154309815Y-96582539D01*
X154257011Y-96628294D01*
X154205500Y-96639500D01*
X150591267Y-96639500D01*
X150524228Y-96619815D01*
X150478473Y-96567011D01*
X150468529Y-96497853D01*
X150480783Y-96459203D01*
X150483239Y-96454382D01*
X150483241Y-96454379D01*
X150561090Y-96214785D01*
X150600500Y-95965962D01*
X150600500Y-95714038D01*
X150561090Y-95465215D01*
X150483241Y-95225621D01*
X150483239Y-95225618D01*
X150483239Y-95225616D01*
X150418492Y-95098544D01*
X150368870Y-95001155D01*
X150296438Y-94901460D01*
X150220798Y-94797350D01*
X150220794Y-94797345D01*
X150042658Y-94619209D01*
X150042656Y-94619207D01*
X149977011Y-94571513D01*
X149934347Y-94516184D01*
X149928368Y-94446570D01*
X149960974Y-94384775D01*
X149962143Y-94383589D01*
X151087819Y-93257914D01*
X151149142Y-93224429D01*
X151218834Y-93229413D01*
X151274767Y-93271285D01*
X151299184Y-93336749D01*
X151299427Y-93343566D01*
X151299499Y-93344484D01*
X151329059Y-93531118D01*
X151387454Y-93710836D01*
X151454859Y-93843124D01*
X151473240Y-93879199D01*
X151584310Y-94032073D01*
X151717927Y-94165690D01*
X151870801Y-94276760D01*
X151948220Y-94316207D01*
X152039163Y-94362545D01*
X152039165Y-94362545D01*
X152039168Y-94362547D01*
X152123653Y-94389998D01*
X152218881Y-94420940D01*
X152405514Y-94450500D01*
X152405519Y-94450500D01*
X152594486Y-94450500D01*
X152781118Y-94420940D01*
X152819007Y-94408629D01*
X152960832Y-94362547D01*
X153129199Y-94276760D01*
X153282073Y-94165690D01*
X153415690Y-94032073D01*
X153526760Y-93879199D01*
X153612547Y-93710832D01*
X153670940Y-93531118D01*
X153692577Y-93394508D01*
X153700500Y-93344486D01*
X153700500Y-93281287D01*
X153700500Y-93155519D01*
X153684108Y-93052028D01*
X153683730Y-93046734D01*
X153690071Y-93017584D01*
X153693895Y-92987996D01*
X153697728Y-92982389D01*
X153698583Y-92978462D01*
X153704374Y-92972671D01*
X153719730Y-92950213D01*
X154733126Y-91936819D01*
X154794449Y-91903334D01*
X154820807Y-91900500D01*
X165578770Y-91900500D01*
X165645809Y-91920185D01*
G37*
%TD.AperFunction*%
%TA.AperFunction,Conductor*%
G36*
X182122358Y-80270185D02*
G01*
X182168113Y-80322989D01*
X182178057Y-80392147D01*
X182149032Y-80455703D01*
X182143000Y-80462181D01*
X181957265Y-80647915D01*
X181789161Y-80858712D01*
X181645714Y-81087005D01*
X181528734Y-81329917D01*
X181439687Y-81584397D01*
X181439684Y-81584405D01*
X181379688Y-81847268D01*
X181379686Y-81847280D01*
X181349500Y-82115186D01*
X181349500Y-82384813D01*
X181379686Y-82652719D01*
X181379687Y-82652728D01*
X181379688Y-82652732D01*
X181385258Y-82677135D01*
X181439684Y-82915594D01*
X181439687Y-82915602D01*
X181528734Y-83170082D01*
X181645714Y-83412994D01*
X181645716Y-83412997D01*
X181789162Y-83641289D01*
X181908444Y-83790864D01*
X181933228Y-83821943D01*
X181957266Y-83852085D01*
X182147915Y-84042734D01*
X182358711Y-84210838D01*
X182587003Y-84354284D01*
X182829921Y-84471267D01*
X183021049Y-84538145D01*
X183084397Y-84560312D01*
X183084405Y-84560315D01*
X183084408Y-84560315D01*
X183084409Y-84560316D01*
X183347268Y-84620312D01*
X183615187Y-84650499D01*
X183615188Y-84650500D01*
X183615191Y-84650500D01*
X183884812Y-84650500D01*
X183884812Y-84650499D01*
X184152732Y-84620312D01*
X184415591Y-84560316D01*
X184670079Y-84471267D01*
X184912997Y-84354284D01*
X185141289Y-84210838D01*
X185352085Y-84042734D01*
X185537819Y-83857000D01*
X185599142Y-83823515D01*
X185668834Y-83828499D01*
X185724767Y-83870371D01*
X185749184Y-83935835D01*
X185749500Y-83944681D01*
X185749500Y-109305319D01*
X185729815Y-109372358D01*
X185677011Y-109418113D01*
X185607853Y-109428057D01*
X185544297Y-109399032D01*
X185537819Y-109393000D01*
X185352084Y-109207265D01*
X185232448Y-109111859D01*
X185141289Y-109039162D01*
X184912997Y-108895716D01*
X184912994Y-108895714D01*
X184670082Y-108778734D01*
X184415602Y-108689687D01*
X184415594Y-108689684D01*
X184207051Y-108642086D01*
X184152732Y-108629688D01*
X184152728Y-108629687D01*
X184152719Y-108629686D01*
X183884813Y-108599500D01*
X183884809Y-108599500D01*
X183615191Y-108599500D01*
X183615186Y-108599500D01*
X183347280Y-108629686D01*
X183347268Y-108629688D01*
X183084405Y-108689684D01*
X183084397Y-108689687D01*
X182829917Y-108778734D01*
X182587005Y-108895714D01*
X182358712Y-109039161D01*
X182147915Y-109207265D01*
X181957265Y-109397915D01*
X181789161Y-109608712D01*
X181645714Y-109837005D01*
X181528734Y-110079917D01*
X181439687Y-110334397D01*
X181439684Y-110334405D01*
X181379688Y-110597268D01*
X181379686Y-110597280D01*
X181349500Y-110865186D01*
X181349500Y-111134813D01*
X181379686Y-111402719D01*
X181379688Y-111402731D01*
X181439684Y-111665594D01*
X181439687Y-111665602D01*
X181528734Y-111920082D01*
X181645714Y-112162994D01*
X181645716Y-112162997D01*
X181789162Y-112391289D01*
X181914573Y-112548549D01*
X181957265Y-112602084D01*
X182143000Y-112787819D01*
X182176485Y-112849142D01*
X182171501Y-112918834D01*
X182129629Y-112974767D01*
X182064165Y-112999184D01*
X182055319Y-112999500D01*
X125194681Y-112999500D01*
X125127642Y-112979815D01*
X125081887Y-112927011D01*
X125071943Y-112857853D01*
X125100968Y-112794297D01*
X125107000Y-112787819D01*
X125292734Y-112602085D01*
X125460838Y-112391289D01*
X125604284Y-112162997D01*
X125721267Y-111920079D01*
X125810316Y-111665591D01*
X125870312Y-111402732D01*
X125900500Y-111134809D01*
X125900500Y-110865191D01*
X125870312Y-110597268D01*
X125810316Y-110334409D01*
X125721267Y-110079921D01*
X125604284Y-109837003D01*
X125460838Y-109608711D01*
X125292734Y-109397915D01*
X125102085Y-109207266D01*
X125099519Y-109205220D01*
X124982448Y-109111859D01*
X124891289Y-109039162D01*
X124662997Y-108895716D01*
X124662994Y-108895714D01*
X124420082Y-108778734D01*
X124165602Y-108689687D01*
X124165594Y-108689684D01*
X123957051Y-108642086D01*
X123902732Y-108629688D01*
X123902728Y-108629687D01*
X123902719Y-108629686D01*
X123634813Y-108599500D01*
X123634809Y-108599500D01*
X123365191Y-108599500D01*
X123365186Y-108599500D01*
X123097280Y-108629686D01*
X123097268Y-108629688D01*
X122834405Y-108689684D01*
X122834397Y-108689687D01*
X122579917Y-108778734D01*
X122337005Y-108895714D01*
X122108712Y-109039161D01*
X121897915Y-109207265D01*
X121712181Y-109393000D01*
X121650858Y-109426485D01*
X121581166Y-109421501D01*
X121525233Y-109379629D01*
X121500816Y-109314165D01*
X121500500Y-109305319D01*
X121500500Y-94651459D01*
X124749500Y-94651459D01*
X124749500Y-94657062D01*
X124749500Y-100598541D01*
X124757306Y-100637781D01*
X124757306Y-100637784D01*
X124787947Y-100791828D01*
X124787950Y-100791840D01*
X124798948Y-100818390D01*
X124863366Y-100973911D01*
X124863371Y-100973920D01*
X124972860Y-101137781D01*
X124972863Y-101137785D01*
X125116537Y-101281459D01*
X125116559Y-101281479D01*
X126219735Y-102384655D01*
X126219764Y-102384686D01*
X126362214Y-102527136D01*
X126362218Y-102527139D01*
X126526079Y-102636628D01*
X126526092Y-102636635D01*
X126654833Y-102689961D01*
X126697744Y-102707735D01*
X126708164Y-102712051D01*
X126804812Y-102731275D01*
X126853135Y-102740887D01*
X126901458Y-102750500D01*
X126901459Y-102750500D01*
X134098542Y-102750500D01*
X134129566Y-102744328D01*
X134195188Y-102731275D01*
X134291836Y-102712051D01*
X134345165Y-102689961D01*
X134473914Y-102636632D01*
X134637782Y-102527139D01*
X134777139Y-102387782D01*
X134777139Y-102387780D01*
X134787347Y-102377573D01*
X134787349Y-102377570D01*
X135958501Y-101206417D01*
X136019822Y-101172934D01*
X136026776Y-101171627D01*
X136031118Y-101170940D01*
X136210832Y-101112547D01*
X136379199Y-101026760D01*
X136382746Y-101024183D01*
X136448552Y-101000702D01*
X136455633Y-101000500D01*
X138294367Y-101000500D01*
X138361406Y-101020185D01*
X138367254Y-101024183D01*
X138370799Y-101026759D01*
X138539163Y-101112545D01*
X138539165Y-101112545D01*
X138539168Y-101112547D01*
X138616830Y-101137781D01*
X138718881Y-101170940D01*
X138905514Y-101200500D01*
X138905519Y-101200500D01*
X139094486Y-101200500D01*
X139184963Y-101186169D01*
X139281118Y-101170940D01*
X139281123Y-101170938D01*
X139281125Y-101170938D01*
X139311447Y-101161085D01*
X139337180Y-101152723D01*
X139407021Y-101150727D01*
X139466854Y-101186806D01*
X139497683Y-101249507D01*
X139499500Y-101270654D01*
X139499500Y-102098542D01*
X139509835Y-102150498D01*
X139509835Y-102150499D01*
X139524438Y-102223915D01*
X139537946Y-102291828D01*
X139537949Y-102291837D01*
X139613364Y-102473907D01*
X139613371Y-102473920D01*
X139722860Y-102637781D01*
X139722863Y-102637785D01*
X139866537Y-102781459D01*
X139866559Y-102781479D01*
X140969735Y-103884655D01*
X140969764Y-103884686D01*
X141112214Y-104027136D01*
X141112218Y-104027139D01*
X141276079Y-104136628D01*
X141276092Y-104136635D01*
X141404833Y-104189961D01*
X141447744Y-104207735D01*
X141458164Y-104212051D01*
X141554812Y-104231275D01*
X141603135Y-104240887D01*
X141651458Y-104250500D01*
X143922177Y-104250500D01*
X143989216Y-104270185D01*
X144034971Y-104322989D01*
X144044915Y-104392147D01*
X144015890Y-104455703D01*
X143960495Y-104492431D01*
X143885618Y-104516760D01*
X143661151Y-104631132D01*
X143457350Y-104779201D01*
X143457345Y-104779205D01*
X143279205Y-104957345D01*
X143279201Y-104957350D01*
X143131132Y-105161150D01*
X143126025Y-105171173D01*
X143120613Y-105181794D01*
X143072641Y-105232590D01*
X143010129Y-105249500D01*
X137296080Y-105249500D01*
X137151092Y-105278340D01*
X137151086Y-105278342D01*
X137014508Y-105334914D01*
X137014496Y-105334921D01*
X136965270Y-105367811D01*
X136965271Y-105367812D01*
X136891581Y-105417049D01*
X136891578Y-105417052D01*
X135925450Y-106383181D01*
X135864127Y-106416666D01*
X135837769Y-106419500D01*
X135655514Y-106419500D01*
X135468881Y-106449059D01*
X135289163Y-106507454D01*
X135120800Y-106593240D01*
X135033579Y-106656610D01*
X134967927Y-106704310D01*
X134967925Y-106704312D01*
X134967924Y-106704312D01*
X134834312Y-106837924D01*
X134834312Y-106837925D01*
X134834310Y-106837927D01*
X134802595Y-106881579D01*
X134723240Y-106990800D01*
X134637454Y-107159163D01*
X134579059Y-107338881D01*
X134549500Y-107525513D01*
X134549500Y-107714486D01*
X134575098Y-107876102D01*
X134566144Y-107945395D01*
X134521148Y-107998847D01*
X134454396Y-108019487D01*
X134452625Y-108019500D01*
X132382229Y-108019500D01*
X132352788Y-108010855D01*
X132322802Y-108004332D01*
X132317786Y-108000577D01*
X132315190Y-107999815D01*
X132294553Y-107983185D01*
X132163874Y-107852506D01*
X132130391Y-107791185D01*
X132129084Y-107745434D01*
X132150500Y-107610222D01*
X132150500Y-107389778D01*
X132116015Y-107172049D01*
X132079171Y-107058653D01*
X132047896Y-106962396D01*
X132047895Y-106962393D01*
X131984474Y-106837925D01*
X131947815Y-106765978D01*
X131903011Y-106704310D01*
X131818247Y-106587641D01*
X131818243Y-106587636D01*
X131662363Y-106431756D01*
X131662358Y-106431752D01*
X131484025Y-106302187D01*
X131484024Y-106302186D01*
X131484022Y-106302185D01*
X131421096Y-106270122D01*
X131287606Y-106202104D01*
X131287603Y-106202103D01*
X131077952Y-106133985D01*
X130969086Y-106116742D01*
X130860222Y-106099500D01*
X130639778Y-106099500D01*
X130567201Y-106110995D01*
X130422047Y-106133985D01*
X130212396Y-106202103D01*
X130212393Y-106202104D01*
X130015974Y-106302187D01*
X129837641Y-106431752D01*
X129837636Y-106431756D01*
X129787075Y-106482317D01*
X129725752Y-106515801D01*
X129656060Y-106510816D01*
X129600127Y-106468945D01*
X129583213Y-106437968D01*
X129553354Y-106357913D01*
X129553350Y-106357906D01*
X129467190Y-106242812D01*
X129467187Y-106242809D01*
X129352093Y-106156649D01*
X129352086Y-106156645D01*
X129217379Y-106106403D01*
X129217372Y-106106401D01*
X129157844Y-106100000D01*
X128460000Y-106100000D01*
X128460000Y-107124722D01*
X128383694Y-107080667D01*
X128269244Y-107050000D01*
X128150756Y-107050000D01*
X128036306Y-107080667D01*
X127960000Y-107124722D01*
X127960000Y-106100000D01*
X127262155Y-106100000D01*
X127202627Y-106106401D01*
X127202620Y-106106403D01*
X127067913Y-106156645D01*
X127067906Y-106156649D01*
X126952812Y-106242809D01*
X126952809Y-106242812D01*
X126866649Y-106357906D01*
X126866645Y-106357913D01*
X126816403Y-106492620D01*
X126816401Y-106492627D01*
X126810000Y-106552155D01*
X126810000Y-107250000D01*
X127834722Y-107250000D01*
X127790667Y-107326306D01*
X127760000Y-107440756D01*
X127760000Y-107559244D01*
X127790667Y-107673694D01*
X127834722Y-107750000D01*
X126810000Y-107750000D01*
X126810000Y-108447844D01*
X126816401Y-108507372D01*
X126816403Y-108507379D01*
X126866645Y-108642086D01*
X126866649Y-108642093D01*
X126952809Y-108757187D01*
X126952812Y-108757190D01*
X127067906Y-108843350D01*
X127067913Y-108843354D01*
X127202620Y-108893596D01*
X127202627Y-108893598D01*
X127262155Y-108899999D01*
X127262172Y-108900000D01*
X127960000Y-108900000D01*
X127960000Y-107875277D01*
X128036306Y-107919333D01*
X128150756Y-107950000D01*
X128269244Y-107950000D01*
X128383694Y-107919333D01*
X128460000Y-107875277D01*
X128460000Y-108900000D01*
X129157828Y-108900000D01*
X129157844Y-108899999D01*
X129217372Y-108893598D01*
X129217379Y-108893596D01*
X129352086Y-108843354D01*
X129352093Y-108843350D01*
X129467187Y-108757190D01*
X129467190Y-108757187D01*
X129553350Y-108642093D01*
X129553354Y-108642086D01*
X129583213Y-108562031D01*
X129625084Y-108506097D01*
X129690548Y-108481680D01*
X129758821Y-108496531D01*
X129787076Y-108517683D01*
X129837636Y-108568243D01*
X129837641Y-108568247D01*
X129945705Y-108646759D01*
X130015978Y-108697815D01*
X130132501Y-108757187D01*
X130212393Y-108797895D01*
X130212396Y-108797896D01*
X130263173Y-108814394D01*
X130422049Y-108866015D01*
X130639778Y-108900500D01*
X130639779Y-108900500D01*
X130860220Y-108900500D01*
X130860222Y-108900500D01*
X130995431Y-108879084D01*
X131064722Y-108888038D01*
X131102508Y-108913876D01*
X131541580Y-109352948D01*
X131541584Y-109352951D01*
X131664498Y-109435080D01*
X131664511Y-109435087D01*
X131801082Y-109491656D01*
X131801087Y-109491658D01*
X131801091Y-109491658D01*
X131801092Y-109491659D01*
X131946079Y-109520500D01*
X131946082Y-109520500D01*
X137923920Y-109520500D01*
X138021462Y-109501096D01*
X138068913Y-109491658D01*
X138205495Y-109435084D01*
X138258750Y-109399500D01*
X138328416Y-109352952D01*
X138824548Y-108856817D01*
X138885869Y-108823334D01*
X138912228Y-108820500D01*
X139094486Y-108820500D01*
X139281118Y-108790940D01*
X139318687Y-108778733D01*
X139460832Y-108732547D01*
X139629199Y-108646760D01*
X139782073Y-108535690D01*
X139915690Y-108402073D01*
X140026760Y-108249199D01*
X140112547Y-108080832D01*
X140170940Y-107901118D01*
X140171484Y-107897682D01*
X154950000Y-107897682D01*
X154950000Y-108102317D01*
X154982009Y-108304417D01*
X155045244Y-108499031D01*
X155138141Y-108681350D01*
X155138147Y-108681359D01*
X155170523Y-108725921D01*
X155170524Y-108725922D01*
X155850000Y-108046446D01*
X155850000Y-108052661D01*
X155877259Y-108154394D01*
X155929920Y-108245606D01*
X156004394Y-108320080D01*
X156095606Y-108372741D01*
X156197339Y-108400000D01*
X156203553Y-108400000D01*
X155524076Y-109079474D01*
X155568650Y-109111859D01*
X155750968Y-109204755D01*
X155945582Y-109267990D01*
X156147683Y-109300000D01*
X156352317Y-109300000D01*
X156554417Y-109267990D01*
X156749031Y-109204755D01*
X156931349Y-109111859D01*
X156975921Y-109079474D01*
X156296447Y-108400000D01*
X156302661Y-108400000D01*
X156404394Y-108372741D01*
X156495606Y-108320080D01*
X156570080Y-108245606D01*
X156622741Y-108154394D01*
X156650000Y-108052661D01*
X156650000Y-108046448D01*
X157329474Y-108725922D01*
X157329474Y-108725921D01*
X157361859Y-108681349D01*
X157454755Y-108499031D01*
X157517990Y-108304417D01*
X157550000Y-108102317D01*
X157550000Y-107897682D01*
X157517990Y-107695582D01*
X157454755Y-107500968D01*
X157361859Y-107318650D01*
X157329474Y-107274077D01*
X157329474Y-107274076D01*
X156650000Y-107953551D01*
X156650000Y-107947339D01*
X156622741Y-107845606D01*
X156570080Y-107754394D01*
X156495606Y-107679920D01*
X156404394Y-107627259D01*
X156302661Y-107600000D01*
X156296446Y-107600000D01*
X156975922Y-106920524D01*
X156975921Y-106920523D01*
X156931359Y-106888147D01*
X156931350Y-106888141D01*
X156749031Y-106795244D01*
X156554417Y-106732009D01*
X156352317Y-106700000D01*
X156147683Y-106700000D01*
X155945582Y-106732009D01*
X155750968Y-106795244D01*
X155568644Y-106888143D01*
X155524077Y-106920523D01*
X155524077Y-106920524D01*
X156203554Y-107600000D01*
X156197339Y-107600000D01*
X156095606Y-107627259D01*
X156004394Y-107679920D01*
X155929920Y-107754394D01*
X155877259Y-107845606D01*
X155850000Y-107947339D01*
X155850000Y-107953553D01*
X155170524Y-107274077D01*
X155170523Y-107274077D01*
X155138143Y-107318644D01*
X155045244Y-107500968D01*
X154982009Y-107695582D01*
X154950000Y-107897682D01*
X140171484Y-107897682D01*
X140187676Y-107795451D01*
X140200500Y-107714486D01*
X140200500Y-107525513D01*
X140170940Y-107338881D01*
X140132572Y-107220798D01*
X140112547Y-107159168D01*
X140112545Y-107159165D01*
X140112545Y-107159163D01*
X140053178Y-107042649D01*
X140026760Y-106990801D01*
X139995216Y-106947385D01*
X139971737Y-106881579D01*
X139987562Y-106813525D01*
X140037668Y-106764830D01*
X140095535Y-106750500D01*
X143010129Y-106750500D01*
X143077168Y-106770185D01*
X143120613Y-106818205D01*
X143123051Y-106822989D01*
X143131132Y-106838849D01*
X143279201Y-107042649D01*
X143279205Y-107042654D01*
X143457345Y-107220794D01*
X143457350Y-107220798D01*
X143619879Y-107338881D01*
X143661155Y-107368870D01*
X143802239Y-107440756D01*
X143885616Y-107483239D01*
X143885618Y-107483239D01*
X143885621Y-107483241D01*
X144125215Y-107561090D01*
X144374038Y-107600500D01*
X144374039Y-107600500D01*
X144625961Y-107600500D01*
X144625962Y-107600500D01*
X144874785Y-107561090D01*
X145114379Y-107483241D01*
X145338845Y-107368870D01*
X145542656Y-107220793D01*
X145720793Y-107042656D01*
X145868870Y-106838845D01*
X145879386Y-106818205D01*
X145927359Y-106767410D01*
X145989871Y-106750500D01*
X147275500Y-106750500D01*
X147342539Y-106770185D01*
X147388294Y-106822989D01*
X147399500Y-106874500D01*
X147399500Y-106900017D01*
X147410000Y-107002796D01*
X147459702Y-107152786D01*
X147465186Y-107169335D01*
X147557288Y-107318656D01*
X147681344Y-107442712D01*
X147830665Y-107534814D01*
X147997202Y-107589999D01*
X148099990Y-107600500D01*
X148099995Y-107600500D01*
X149900005Y-107600500D01*
X149900010Y-107600500D01*
X150002798Y-107589999D01*
X150169335Y-107534814D01*
X150318656Y-107442712D01*
X150442712Y-107318656D01*
X150534814Y-107169335D01*
X150589999Y-107002798D01*
X150600500Y-106900010D01*
X150600500Y-106870333D01*
X150600780Y-106866174D01*
X150611469Y-106837142D01*
X150620185Y-106807461D01*
X150623435Y-106804644D01*
X150624922Y-106800607D01*
X150649616Y-106781958D01*
X150672989Y-106761706D01*
X150677829Y-106760653D01*
X150680679Y-106758501D01*
X150691483Y-106757682D01*
X150724500Y-106750500D01*
X153743920Y-106750500D01*
X153841462Y-106731096D01*
X153888913Y-106721658D01*
X154025495Y-106665084D01*
X154101381Y-106614379D01*
X154148416Y-106582952D01*
X161739068Y-98992298D01*
X161750115Y-98986266D01*
X161758225Y-98976633D01*
X161780202Y-98969837D01*
X161800389Y-98958815D01*
X161812948Y-98959713D01*
X161824977Y-98955994D01*
X161847135Y-98962158D01*
X161870081Y-98963799D01*
X161880160Y-98971344D01*
X161892290Y-98974719D01*
X161907599Y-98991886D01*
X161926014Y-99005671D01*
X161931526Y-99018714D01*
X161938794Y-99026864D01*
X161949220Y-99060583D01*
X161949500Y-99062350D01*
X161949500Y-99062352D01*
X161955678Y-99101357D01*
X161958318Y-99118026D01*
X161949363Y-99187320D01*
X161923526Y-99225105D01*
X160667050Y-100481581D01*
X160667044Y-100481589D01*
X160629386Y-100537948D01*
X160629387Y-100537949D01*
X160584913Y-100604508D01*
X160528343Y-100741082D01*
X160528340Y-100741092D01*
X160499500Y-100886079D01*
X160499500Y-106874582D01*
X160479815Y-106941621D01*
X160448385Y-106974900D01*
X160402787Y-107008028D01*
X160402782Y-107008032D01*
X160258028Y-107152786D01*
X160137715Y-107318386D01*
X160044781Y-107500776D01*
X159981522Y-107695465D01*
X159949500Y-107897648D01*
X159949500Y-108102351D01*
X159981522Y-108304534D01*
X160044781Y-108499223D01*
X160095876Y-108599500D01*
X160137585Y-108681359D01*
X160137715Y-108681613D01*
X160258028Y-108847213D01*
X160402786Y-108991971D01*
X160523226Y-109079474D01*
X160568390Y-109112287D01*
X160684607Y-109171503D01*
X160750776Y-109205218D01*
X160750778Y-109205218D01*
X160750781Y-109205220D01*
X160855137Y-109239127D01*
X160945465Y-109268477D01*
X161046557Y-109284488D01*
X161147648Y-109300500D01*
X161147649Y-109300500D01*
X161352351Y-109300500D01*
X161352352Y-109300500D01*
X161554534Y-109268477D01*
X161749219Y-109205220D01*
X161931610Y-109112287D01*
X162032260Y-109039161D01*
X162097213Y-108991971D01*
X162097215Y-108991968D01*
X162097219Y-108991966D01*
X162241966Y-108847219D01*
X162241968Y-108847215D01*
X162241971Y-108847213D01*
X162307375Y-108757190D01*
X162362287Y-108681610D01*
X162455220Y-108499219D01*
X162518477Y-108304534D01*
X162550500Y-108102352D01*
X162550500Y-107897682D01*
X164700000Y-107897682D01*
X164700000Y-108102317D01*
X164732009Y-108304417D01*
X164795244Y-108499031D01*
X164888141Y-108681350D01*
X164888147Y-108681359D01*
X164920523Y-108725921D01*
X164920524Y-108725922D01*
X165600000Y-108046446D01*
X165600000Y-108052661D01*
X165627259Y-108154394D01*
X165679920Y-108245606D01*
X165754394Y-108320080D01*
X165845606Y-108372741D01*
X165947339Y-108400000D01*
X165953553Y-108400000D01*
X165274076Y-109079474D01*
X165318650Y-109111859D01*
X165500968Y-109204755D01*
X165695582Y-109267990D01*
X165897683Y-109300000D01*
X166102317Y-109300000D01*
X166304417Y-109267990D01*
X166499031Y-109204755D01*
X166681349Y-109111859D01*
X166725921Y-109079474D01*
X166046447Y-108400000D01*
X166052661Y-108400000D01*
X166154394Y-108372741D01*
X166245606Y-108320080D01*
X166320080Y-108245606D01*
X166372741Y-108154394D01*
X166400000Y-108052661D01*
X166400000Y-108046447D01*
X167079474Y-108725921D01*
X167111859Y-108681349D01*
X167204755Y-108499031D01*
X167267990Y-108304417D01*
X167300000Y-108102317D01*
X167300000Y-107897682D01*
X167267990Y-107695582D01*
X167204755Y-107500968D01*
X167111859Y-107318650D01*
X167079474Y-107274077D01*
X167079474Y-107274076D01*
X166400000Y-107953551D01*
X166400000Y-107947339D01*
X166372741Y-107845606D01*
X166320080Y-107754394D01*
X166245606Y-107679920D01*
X166154394Y-107627259D01*
X166052661Y-107600000D01*
X166046446Y-107600000D01*
X166725922Y-106920524D01*
X166725921Y-106920523D01*
X166681359Y-106888147D01*
X166681350Y-106888141D01*
X166499031Y-106795244D01*
X166304417Y-106732009D01*
X166102317Y-106700000D01*
X165897683Y-106700000D01*
X165695582Y-106732009D01*
X165500968Y-106795244D01*
X165318644Y-106888143D01*
X165274077Y-106920523D01*
X165274077Y-106920524D01*
X165953554Y-107600000D01*
X165947339Y-107600000D01*
X165845606Y-107627259D01*
X165754394Y-107679920D01*
X165679920Y-107754394D01*
X165627259Y-107845606D01*
X165600000Y-107947339D01*
X165600000Y-107953553D01*
X164920524Y-107274077D01*
X164920523Y-107274077D01*
X164888143Y-107318644D01*
X164795244Y-107500968D01*
X164732009Y-107695582D01*
X164700000Y-107897682D01*
X162550500Y-107897682D01*
X162550500Y-107897648D01*
X162539461Y-107827951D01*
X162518477Y-107695465D01*
X162484208Y-107589998D01*
X162455220Y-107500781D01*
X162455218Y-107500778D01*
X162455218Y-107500776D01*
X162398661Y-107389778D01*
X162362287Y-107318390D01*
X162330092Y-107274077D01*
X162241971Y-107152786D01*
X162147838Y-107058653D01*
X162097219Y-107008034D01*
X162047381Y-106971824D01*
X162043414Y-106968396D01*
X162027211Y-106943254D01*
X162008949Y-106919571D01*
X162007714Y-106912999D01*
X162005566Y-106909665D01*
X162005555Y-106901503D01*
X162000500Y-106874582D01*
X162000500Y-102374386D01*
X162020185Y-102307347D01*
X162072989Y-102261592D01*
X162142147Y-102251648D01*
X162205703Y-102280673D01*
X162224819Y-102301502D01*
X162258030Y-102347215D01*
X162402786Y-102491971D01*
X162557749Y-102604556D01*
X162568390Y-102612287D01*
X162684607Y-102671503D01*
X162750776Y-102705218D01*
X162750778Y-102705218D01*
X162750781Y-102705220D01*
X162830964Y-102731273D01*
X162945465Y-102768477D01*
X163000167Y-102777141D01*
X163147648Y-102800500D01*
X163147649Y-102800500D01*
X163352351Y-102800500D01*
X163352352Y-102800500D01*
X163554534Y-102768477D01*
X163749219Y-102705220D01*
X163931610Y-102612287D01*
X164048807Y-102527139D01*
X164097213Y-102491971D01*
X164097215Y-102491968D01*
X164097219Y-102491966D01*
X164176228Y-102412957D01*
X164237551Y-102379472D01*
X164307243Y-102384456D01*
X164351590Y-102412957D01*
X164673526Y-102734893D01*
X164707011Y-102796216D01*
X164708318Y-102841971D01*
X164699500Y-102897647D01*
X164699500Y-103102351D01*
X164731522Y-103304534D01*
X164794781Y-103499223D01*
X164887715Y-103681613D01*
X165008028Y-103847213D01*
X165152786Y-103991971D01*
X165307749Y-104104556D01*
X165318390Y-104112287D01*
X165434607Y-104171503D01*
X165500776Y-104205218D01*
X165500778Y-104205218D01*
X165500781Y-104205220D01*
X165580964Y-104231273D01*
X165695465Y-104268477D01*
X165796557Y-104284488D01*
X165897648Y-104300500D01*
X165897649Y-104300500D01*
X166102351Y-104300500D01*
X166102352Y-104300500D01*
X166304534Y-104268477D01*
X166499219Y-104205220D01*
X166681610Y-104112287D01*
X166798807Y-104027139D01*
X166847213Y-103991971D01*
X166847215Y-103991968D01*
X166847219Y-103991966D01*
X166991966Y-103847219D01*
X166991968Y-103847215D01*
X166991971Y-103847213D01*
X167044732Y-103774590D01*
X167112287Y-103681610D01*
X167205220Y-103499219D01*
X167268477Y-103304534D01*
X167300500Y-103102352D01*
X167300500Y-102897648D01*
X167300500Y-102897647D01*
X167268477Y-102695465D01*
X167205218Y-102500776D01*
X167147644Y-102387782D01*
X167112287Y-102318390D01*
X167084884Y-102280673D01*
X166991971Y-102152786D01*
X166847213Y-102008028D01*
X166681613Y-101887715D01*
X166681612Y-101887714D01*
X166681610Y-101887713D01*
X166624653Y-101858691D01*
X166499223Y-101794781D01*
X166304534Y-101731522D01*
X166129995Y-101703878D01*
X166102352Y-101699500D01*
X165897648Y-101699500D01*
X165841971Y-101708318D01*
X165772678Y-101699363D01*
X165734893Y-101673526D01*
X164978421Y-100917052D01*
X164978414Y-100917046D01*
X164904729Y-100867812D01*
X164904729Y-100867813D01*
X164855491Y-100834913D01*
X164718917Y-100778343D01*
X164718907Y-100778340D01*
X164573920Y-100749500D01*
X164573918Y-100749500D01*
X164375418Y-100749500D01*
X164308379Y-100729815D01*
X164275100Y-100698385D01*
X164241971Y-100652787D01*
X164241967Y-100652782D01*
X164097213Y-100508028D01*
X163931614Y-100387715D01*
X163893596Y-100368344D01*
X163838917Y-100340483D01*
X163788123Y-100292511D01*
X163771328Y-100224690D01*
X163793865Y-100158555D01*
X163838917Y-100119516D01*
X163931610Y-100072287D01*
X163995209Y-100026080D01*
X164097213Y-99951971D01*
X164097215Y-99951968D01*
X164097219Y-99951966D01*
X164241966Y-99807219D01*
X164241968Y-99807215D01*
X164241971Y-99807213D01*
X164305526Y-99719735D01*
X164362287Y-99641610D01*
X164455220Y-99459219D01*
X164518477Y-99264534D01*
X164550500Y-99062352D01*
X164550500Y-98857648D01*
X164534365Y-98755776D01*
X164518477Y-98655465D01*
X164479926Y-98536819D01*
X164455220Y-98460781D01*
X164455218Y-98460778D01*
X164455218Y-98460776D01*
X164415860Y-98383533D01*
X164362287Y-98278390D01*
X164354556Y-98267749D01*
X164241971Y-98112786D01*
X164097213Y-97968028D01*
X163931614Y-97847715D01*
X163925006Y-97844348D01*
X163838917Y-97800483D01*
X163788123Y-97752511D01*
X163771328Y-97684690D01*
X163793865Y-97618555D01*
X163838917Y-97579516D01*
X163931610Y-97532287D01*
X164048572Y-97447310D01*
X164097213Y-97411971D01*
X164097215Y-97411968D01*
X164097219Y-97411966D01*
X164241966Y-97267219D01*
X164241968Y-97267215D01*
X164241971Y-97267213D01*
X164340458Y-97131655D01*
X164362287Y-97101610D01*
X164455220Y-96919219D01*
X164518477Y-96724534D01*
X164550500Y-96522352D01*
X164550500Y-96317648D01*
X164518477Y-96115466D01*
X164455220Y-95920781D01*
X164455218Y-95920778D01*
X164455218Y-95920776D01*
X164421503Y-95854607D01*
X164362287Y-95738390D01*
X164354556Y-95727749D01*
X164241971Y-95572786D01*
X164097213Y-95428028D01*
X163931614Y-95307715D01*
X163924884Y-95304286D01*
X163838917Y-95260483D01*
X163788123Y-95212511D01*
X163771328Y-95144690D01*
X163793865Y-95078555D01*
X163838917Y-95039516D01*
X163931610Y-94992287D01*
X163952770Y-94976913D01*
X164097213Y-94871971D01*
X164097215Y-94871968D01*
X164097219Y-94871966D01*
X164241966Y-94727219D01*
X164244650Y-94723524D01*
X164275100Y-94681615D01*
X164330429Y-94638949D01*
X164375418Y-94630500D01*
X165033920Y-94630500D01*
X165131462Y-94611096D01*
X165178913Y-94601658D01*
X165315495Y-94545084D01*
X165364729Y-94512186D01*
X165438416Y-94462952D01*
X168174548Y-91726818D01*
X168235871Y-91693334D01*
X168262229Y-91690500D01*
X168884218Y-91690500D01*
X168951257Y-91710185D01*
X168971899Y-91726819D01*
X170522215Y-93277137D01*
X170522219Y-93277140D01*
X170686079Y-93386628D01*
X170686085Y-93386631D01*
X170686086Y-93386632D01*
X170868165Y-93462052D01*
X171029389Y-93494121D01*
X171061457Y-93500499D01*
X171061458Y-93500500D01*
X171061459Y-93500500D01*
X171061460Y-93500500D01*
X171258541Y-93500500D01*
X175225500Y-93500500D01*
X175292539Y-93520185D01*
X175338294Y-93572989D01*
X175349500Y-93624500D01*
X175349500Y-93700015D01*
X175360000Y-93802795D01*
X175360001Y-93802797D01*
X175372747Y-93841261D01*
X175415186Y-93969335D01*
X175415187Y-93969337D01*
X175507286Y-94118651D01*
X175507289Y-94118655D01*
X175631344Y-94242710D01*
X175631348Y-94242713D01*
X175780662Y-94334812D01*
X175780664Y-94334813D01*
X175780666Y-94334814D01*
X175947203Y-94389999D01*
X176049992Y-94400500D01*
X176049997Y-94400500D01*
X178450003Y-94400500D01*
X178450008Y-94400500D01*
X178552797Y-94389999D01*
X178586497Y-94378831D01*
X178614955Y-94377852D01*
X178643147Y-94373799D01*
X178649425Y-94376666D01*
X178656322Y-94376429D01*
X178680794Y-94390992D01*
X178706703Y-94402824D01*
X178710434Y-94408629D01*
X178716365Y-94412159D01*
X178729079Y-94437643D01*
X178744477Y-94461602D01*
X178745871Y-94471297D01*
X178747558Y-94474679D01*
X178749500Y-94496537D01*
X178749500Y-94534217D01*
X178729815Y-94601256D01*
X178713181Y-94621898D01*
X177736406Y-95598672D01*
X177675083Y-95632157D01*
X177624541Y-95632610D01*
X177621563Y-95632017D01*
X177374575Y-95599501D01*
X177374570Y-95599500D01*
X177374565Y-95599500D01*
X177125435Y-95599500D01*
X177125429Y-95599500D01*
X177125424Y-95599501D01*
X176878438Y-95632017D01*
X176637792Y-95696498D01*
X176407638Y-95791830D01*
X176407623Y-95791837D01*
X176191873Y-95916400D01*
X175994225Y-96068060D01*
X175994218Y-96068066D01*
X175818066Y-96244218D01*
X175818060Y-96244225D01*
X175666406Y-96441865D01*
X175664724Y-96444384D01*
X175664027Y-96444966D01*
X175663930Y-96445093D01*
X175663901Y-96445071D01*
X175611115Y-96489192D01*
X175561617Y-96499500D01*
X171401458Y-96499500D01*
X171384441Y-96502885D01*
X171350407Y-96509655D01*
X171208171Y-96537947D01*
X171208159Y-96537950D01*
X171164707Y-96555948D01*
X171164708Y-96555949D01*
X171026090Y-96613366D01*
X171026080Y-96613371D01*
X170895019Y-96700944D01*
X170895018Y-96700945D01*
X170862215Y-96722862D01*
X170862214Y-96722863D01*
X168971651Y-98613427D01*
X168910328Y-98646912D01*
X168880834Y-98648919D01*
X168880834Y-98649500D01*
X168875962Y-98649500D01*
X168624038Y-98649500D01*
X168499626Y-98669205D01*
X168375214Y-98688910D01*
X168135616Y-98766760D01*
X167911151Y-98881132D01*
X167707350Y-99029201D01*
X167707345Y-99029205D01*
X167529205Y-99207345D01*
X167529201Y-99207350D01*
X167381132Y-99411151D01*
X167266760Y-99635616D01*
X167188910Y-99875214D01*
X167176754Y-99951966D01*
X167149500Y-100124038D01*
X167149500Y-100375962D01*
X167184753Y-100598541D01*
X167188910Y-100624785D01*
X167266760Y-100864383D01*
X167381132Y-101088848D01*
X167529201Y-101292649D01*
X167529202Y-101292651D01*
X167707345Y-101470794D01*
X167707350Y-101470798D01*
X167794641Y-101534218D01*
X167911155Y-101618870D01*
X168018424Y-101673526D01*
X168135616Y-101733239D01*
X168135618Y-101733239D01*
X168135621Y-101733241D01*
X168375215Y-101811090D01*
X168624038Y-101850500D01*
X168624039Y-101850500D01*
X168875961Y-101850500D01*
X168875962Y-101850500D01*
X169124785Y-101811090D01*
X169364379Y-101733241D01*
X169588845Y-101618870D01*
X169792656Y-101470793D01*
X169970793Y-101292656D01*
X169970793Y-101292655D01*
X169970798Y-101292651D01*
X169970798Y-101292649D01*
X170118870Y-101088845D01*
X170233241Y-100864379D01*
X170311090Y-100624785D01*
X170350500Y-100375962D01*
X170350500Y-100124038D01*
X170350500Y-100119166D01*
X170352028Y-100119166D01*
X170364979Y-100057415D01*
X170386567Y-100028351D01*
X171878102Y-98536819D01*
X171939425Y-98503334D01*
X171965783Y-98500500D01*
X175561617Y-98500500D01*
X175628656Y-98520185D01*
X175664724Y-98555616D01*
X175666398Y-98558123D01*
X175666400Y-98558126D01*
X175666406Y-98558134D01*
X175818060Y-98755774D01*
X175818066Y-98755781D01*
X175994218Y-98931933D01*
X175994225Y-98931939D01*
X176191873Y-99083599D01*
X176407623Y-99208162D01*
X176407638Y-99208169D01*
X176443113Y-99222863D01*
X176637793Y-99303502D01*
X176878435Y-99367982D01*
X177125435Y-99400500D01*
X177125442Y-99400500D01*
X177374558Y-99400500D01*
X177374565Y-99400500D01*
X177621565Y-99367982D01*
X177862207Y-99303502D01*
X178092373Y-99208164D01*
X178308127Y-99083599D01*
X178505776Y-98931938D01*
X178681938Y-98755776D01*
X178833599Y-98558127D01*
X178958164Y-98342373D01*
X179053502Y-98112207D01*
X179117982Y-97871565D01*
X179150500Y-97624565D01*
X179150500Y-97375435D01*
X179117982Y-97128435D01*
X179117977Y-97128417D01*
X179117390Y-97125463D01*
X179117471Y-97124555D01*
X179117452Y-97124410D01*
X179117484Y-97124405D01*
X179123618Y-97055871D01*
X179151325Y-97013593D01*
X180387778Y-95777141D01*
X180387782Y-95777139D01*
X180527139Y-95637782D01*
X180636632Y-95473914D01*
X180712051Y-95291835D01*
X180712051Y-95291832D01*
X180712053Y-95291828D01*
X180725562Y-95223915D01*
X180750499Y-95098544D01*
X180750500Y-95098541D01*
X180750500Y-89651456D01*
X180712052Y-89458170D01*
X180712051Y-89458169D01*
X180712051Y-89458165D01*
X180682422Y-89386633D01*
X180636635Y-89276092D01*
X180636628Y-89276079D01*
X180527139Y-89112218D01*
X180527136Y-89112214D01*
X180384686Y-88969764D01*
X180384655Y-88969735D01*
X179281479Y-87866559D01*
X179281459Y-87866537D01*
X179137785Y-87722863D01*
X179137781Y-87722860D01*
X178973920Y-87613371D01*
X178973911Y-87613366D01*
X178901315Y-87583296D01*
X178845165Y-87560038D01*
X178791836Y-87537949D01*
X178791832Y-87537948D01*
X178791828Y-87537946D01*
X178695188Y-87518724D01*
X178598544Y-87499500D01*
X178598541Y-87499500D01*
X176265783Y-87499500D01*
X176198744Y-87479815D01*
X176178102Y-87463181D01*
X175022475Y-86307554D01*
X174988990Y-86246231D01*
X174993974Y-86176539D01*
X175035846Y-86120606D01*
X175071842Y-86101941D01*
X175097567Y-86093583D01*
X175301276Y-85989788D01*
X175486242Y-85855402D01*
X175647902Y-85693742D01*
X175782288Y-85508776D01*
X175886082Y-85305070D01*
X175956734Y-85087628D01*
X175978532Y-84950000D01*
X175030748Y-84950000D01*
X175052518Y-84912292D01*
X175090000Y-84772409D01*
X175090000Y-84627591D01*
X175052518Y-84487708D01*
X175030748Y-84450000D01*
X175978532Y-84450000D01*
X175956734Y-84312371D01*
X175886082Y-84094929D01*
X175782288Y-83891223D01*
X175647902Y-83706257D01*
X175486242Y-83544597D01*
X175301276Y-83410211D01*
X175097568Y-83306417D01*
X174880124Y-83235765D01*
X174790000Y-83221490D01*
X174790000Y-84209252D01*
X174752292Y-84187482D01*
X174612409Y-84150000D01*
X174467591Y-84150000D01*
X174327708Y-84187482D01*
X174290000Y-84209252D01*
X174290000Y-83221490D01*
X174289999Y-83221490D01*
X174199875Y-83235765D01*
X173982431Y-83306417D01*
X173778723Y-83410211D01*
X173593757Y-83544597D01*
X173432097Y-83706257D01*
X173370627Y-83790864D01*
X173315297Y-83833529D01*
X173245684Y-83839508D01*
X173183889Y-83806902D01*
X173169991Y-83790864D01*
X173108286Y-83705934D01*
X172946566Y-83544214D01*
X172761538Y-83409783D01*
X172557755Y-83305950D01*
X172340248Y-83235278D01*
X172154812Y-83205908D01*
X172114354Y-83199500D01*
X171885646Y-83199500D01*
X171845188Y-83205908D01*
X171659753Y-83235278D01*
X171659750Y-83235278D01*
X171442244Y-83305950D01*
X171238461Y-83409783D01*
X171055759Y-83542525D01*
X170989952Y-83566005D01*
X170921898Y-83550180D01*
X170873203Y-83500074D01*
X170866690Y-83485538D01*
X170856296Y-83457669D01*
X170856293Y-83457664D01*
X170770047Y-83342455D01*
X170770044Y-83342452D01*
X170654835Y-83256206D01*
X170654828Y-83256202D01*
X170519982Y-83205908D01*
X170519983Y-83205908D01*
X170460383Y-83199501D01*
X170460381Y-83199500D01*
X170460373Y-83199500D01*
X170460364Y-83199500D01*
X168459629Y-83199500D01*
X168459623Y-83199501D01*
X168400016Y-83205908D01*
X168265171Y-83256202D01*
X168265164Y-83256206D01*
X168149955Y-83342452D01*
X168149952Y-83342455D01*
X168063706Y-83457664D01*
X168063702Y-83457671D01*
X168013408Y-83592517D01*
X168007001Y-83652116D01*
X168007000Y-83652135D01*
X168007000Y-85181691D01*
X167987315Y-85248730D01*
X167970681Y-85269372D01*
X165994724Y-87245329D01*
X165942215Y-87323917D01*
X165942213Y-87323919D01*
X165923539Y-87351865D01*
X165923533Y-87351875D01*
X165874499Y-87470255D01*
X165874497Y-87470261D01*
X165849500Y-87595928D01*
X165849500Y-90179192D01*
X165829815Y-90246231D01*
X165813181Y-90266873D01*
X165516873Y-90563181D01*
X165455550Y-90596666D01*
X165429192Y-90599500D01*
X154435929Y-90599500D01*
X154310261Y-90624497D01*
X154310255Y-90624499D01*
X154191875Y-90673533D01*
X154191866Y-90673538D01*
X154085331Y-90744723D01*
X154085327Y-90744726D01*
X152799788Y-92030265D01*
X152795624Y-92032538D01*
X152793048Y-92036523D01*
X152765247Y-92049125D01*
X152738465Y-92063750D01*
X152732538Y-92063953D01*
X152729411Y-92065371D01*
X152698850Y-92065109D01*
X152694117Y-92065272D01*
X152693401Y-92065167D01*
X152594481Y-92049500D01*
X152586553Y-92049500D01*
X152577605Y-92048188D01*
X152553747Y-92037212D01*
X152528556Y-92029815D01*
X152522514Y-92022843D01*
X152514131Y-92018986D01*
X152499993Y-91996852D01*
X152482801Y-91977011D01*
X152481488Y-91967879D01*
X152476521Y-91960103D01*
X152476594Y-91933844D01*
X152472857Y-91907853D01*
X152476690Y-91899459D01*
X152476716Y-91890233D01*
X152490973Y-91868183D01*
X152501882Y-91844297D01*
X152507914Y-91837819D01*
X156308915Y-88036819D01*
X156370238Y-88003334D01*
X156396596Y-88000500D01*
X160823920Y-88000500D01*
X160922924Y-87980806D01*
X160968913Y-87971658D01*
X161059967Y-87933942D01*
X161105493Y-87915085D01*
X161105493Y-87915084D01*
X161105495Y-87915084D01*
X161164737Y-87875500D01*
X161164737Y-87875499D01*
X161164739Y-87875499D01*
X161196576Y-87854226D01*
X161228416Y-87832952D01*
X161457952Y-87603416D01*
X161539837Y-87480864D01*
X161540084Y-87480495D01*
X161593361Y-87351873D01*
X161596659Y-87343912D01*
X161625500Y-87198917D01*
X161625500Y-87051082D01*
X161625500Y-86349499D01*
X161645185Y-86282460D01*
X161697989Y-86236705D01*
X161749500Y-86225499D01*
X162422871Y-86225499D01*
X162422872Y-86225499D01*
X162482483Y-86219091D01*
X162617331Y-86168796D01*
X162732546Y-86082546D01*
X162818796Y-85967331D01*
X162869091Y-85832483D01*
X162875500Y-85772873D01*
X162875499Y-82677128D01*
X162869091Y-82617517D01*
X162818796Y-82482669D01*
X162818795Y-82482668D01*
X162818793Y-82482664D01*
X162732547Y-82367455D01*
X162732544Y-82367452D01*
X162617335Y-82281206D01*
X162617328Y-82281202D01*
X162482482Y-82230908D01*
X162482483Y-82230908D01*
X162422883Y-82224501D01*
X162422881Y-82224500D01*
X162422873Y-82224500D01*
X162422864Y-82224500D01*
X159327129Y-82224500D01*
X159327123Y-82224501D01*
X159267516Y-82230908D01*
X159132671Y-82281202D01*
X159132664Y-82281206D01*
X159017455Y-82367452D01*
X159017452Y-82367455D01*
X158931206Y-82482664D01*
X158931202Y-82482671D01*
X158880908Y-82617517D01*
X158874501Y-82677116D01*
X158874501Y-82677123D01*
X158874500Y-82677135D01*
X158874500Y-85772870D01*
X158874501Y-85772876D01*
X158880908Y-85832483D01*
X158931202Y-85967328D01*
X158931206Y-85967335D01*
X159017452Y-86082544D01*
X159017455Y-86082547D01*
X159132664Y-86168793D01*
X159132671Y-86168797D01*
X159267517Y-86219091D01*
X159267516Y-86219091D01*
X159274444Y-86219835D01*
X159327127Y-86225500D01*
X160000500Y-86225499D01*
X160009186Y-86228049D01*
X160018147Y-86226761D01*
X160042183Y-86237738D01*
X160067539Y-86245183D01*
X160073467Y-86252025D01*
X160081703Y-86255786D01*
X160095989Y-86278017D01*
X160113294Y-86297987D01*
X160115581Y-86308502D01*
X160119477Y-86314564D01*
X160124500Y-86349499D01*
X160124500Y-86375500D01*
X160104815Y-86442539D01*
X160052011Y-86488294D01*
X160000500Y-86499500D01*
X155960446Y-86499500D01*
X155815458Y-86528340D01*
X155815448Y-86528343D01*
X155678875Y-86584913D01*
X155648538Y-86605184D01*
X155555945Y-86667051D01*
X155555944Y-86667052D01*
X148412740Y-93810258D01*
X148410868Y-93808386D01*
X148362595Y-93841261D01*
X148292751Y-93843124D01*
X148232986Y-93806931D01*
X148202276Y-93744172D01*
X148200500Y-93723258D01*
X148200500Y-93012228D01*
X148220185Y-92945189D01*
X148236814Y-92924552D01*
X155035798Y-86125567D01*
X155097119Y-86092084D01*
X155166811Y-86097068D01*
X155170921Y-86098686D01*
X155219694Y-86118888D01*
X155223840Y-86120606D01*
X155230581Y-86123398D01*
X155483884Y-86191270D01*
X155732188Y-86223960D01*
X155743864Y-86225498D01*
X155743880Y-86225500D01*
X155743887Y-86225500D01*
X156006113Y-86225500D01*
X156006120Y-86225500D01*
X156266116Y-86191270D01*
X156519419Y-86123398D01*
X156761697Y-86023043D01*
X156988803Y-85891924D01*
X157196851Y-85732282D01*
X157196855Y-85732277D01*
X157196860Y-85732274D01*
X157382274Y-85546860D01*
X157382277Y-85546855D01*
X157382282Y-85546851D01*
X157541924Y-85338803D01*
X157673043Y-85111697D01*
X157773398Y-84869419D01*
X157841270Y-84616116D01*
X157875500Y-84356120D01*
X157875500Y-84093880D01*
X157841270Y-83833884D01*
X157773398Y-83580581D01*
X157773058Y-83579759D01*
X157673046Y-83338309D01*
X157673041Y-83338299D01*
X157541924Y-83111196D01*
X157419424Y-82951554D01*
X157382282Y-82903149D01*
X157382281Y-82903148D01*
X157382274Y-82903140D01*
X157196860Y-82717726D01*
X157196851Y-82717718D01*
X156988803Y-82558075D01*
X156761700Y-82426958D01*
X156761690Y-82426953D01*
X156519428Y-82326605D01*
X156519421Y-82326603D01*
X156519419Y-82326602D01*
X156266116Y-82258730D01*
X156208339Y-82251123D01*
X156006127Y-82224500D01*
X156006120Y-82224500D01*
X155743880Y-82224500D01*
X155743872Y-82224500D01*
X155512772Y-82254926D01*
X155483884Y-82258730D01*
X155230581Y-82326602D01*
X155230571Y-82326605D01*
X154988309Y-82426953D01*
X154988299Y-82426958D01*
X154761196Y-82558075D01*
X154553148Y-82717718D01*
X154367718Y-82903148D01*
X154208075Y-83111196D01*
X154076958Y-83338299D01*
X154076953Y-83338309D01*
X153976605Y-83580571D01*
X153976602Y-83580581D01*
X153911509Y-83823515D01*
X153908730Y-83833885D01*
X153874500Y-84093872D01*
X153874500Y-84356127D01*
X153891824Y-84487708D01*
X153908730Y-84616116D01*
X153964968Y-84826000D01*
X153976602Y-84869418D01*
X153976605Y-84869428D01*
X154001309Y-84929068D01*
X154008778Y-84998538D01*
X153977503Y-85061017D01*
X153974429Y-85064202D01*
X151837181Y-87201451D01*
X151775858Y-87234936D01*
X151706166Y-87229952D01*
X151650233Y-87188080D01*
X151625816Y-87122616D01*
X151625500Y-87113770D01*
X151625500Y-86162311D01*
X151645185Y-86095272D01*
X151697989Y-86049517D01*
X151702014Y-86047763D01*
X151761697Y-86023043D01*
X151988803Y-85891924D01*
X152196851Y-85732282D01*
X152196855Y-85732277D01*
X152196860Y-85732274D01*
X152382274Y-85546860D01*
X152382277Y-85546855D01*
X152382282Y-85546851D01*
X152541924Y-85338803D01*
X152673043Y-85111697D01*
X152773398Y-84869419D01*
X152841270Y-84616116D01*
X152875500Y-84356120D01*
X152875500Y-84093880D01*
X152841270Y-83833884D01*
X152773398Y-83580581D01*
X152773058Y-83579759D01*
X152673046Y-83338309D01*
X152673041Y-83338299D01*
X152541924Y-83111196D01*
X152419424Y-82951554D01*
X152382282Y-82903149D01*
X152382281Y-82903148D01*
X152382274Y-82903140D01*
X152196860Y-82717726D01*
X152196851Y-82717718D01*
X151988803Y-82558075D01*
X151761700Y-82426958D01*
X151761690Y-82426953D01*
X151519428Y-82326605D01*
X151519421Y-82326603D01*
X151519419Y-82326602D01*
X151266116Y-82258730D01*
X151208339Y-82251123D01*
X151006127Y-82224500D01*
X151006120Y-82224500D01*
X150743880Y-82224500D01*
X150743872Y-82224500D01*
X150512772Y-82254926D01*
X150483884Y-82258730D01*
X150230581Y-82326602D01*
X150230571Y-82326605D01*
X149988309Y-82426953D01*
X149988299Y-82426958D01*
X149761196Y-82558075D01*
X149553148Y-82717718D01*
X149367718Y-82903148D01*
X149208075Y-83111196D01*
X149076958Y-83338299D01*
X149076953Y-83338309D01*
X148976605Y-83580571D01*
X148976602Y-83580581D01*
X148911509Y-83823515D01*
X148908730Y-83833885D01*
X148874500Y-84093872D01*
X148874500Y-84356127D01*
X148891824Y-84487708D01*
X148908730Y-84616116D01*
X148964968Y-84826000D01*
X148976602Y-84869418D01*
X148976605Y-84869428D01*
X149076953Y-85111690D01*
X149076958Y-85111700D01*
X149208075Y-85338803D01*
X149367718Y-85546851D01*
X149367726Y-85546860D01*
X149553140Y-85732274D01*
X149553148Y-85732281D01*
X149553149Y-85732282D01*
X149601554Y-85769424D01*
X149761196Y-85891924D01*
X149988299Y-86023041D01*
X149988301Y-86023041D01*
X149988303Y-86023043D01*
X150047952Y-86047750D01*
X150102355Y-86091589D01*
X150124421Y-86157883D01*
X150124500Y-86162311D01*
X150124500Y-87012770D01*
X150104815Y-87079809D01*
X150088181Y-87100451D01*
X143917049Y-93271582D01*
X143895699Y-93303536D01*
X143834913Y-93394508D01*
X143778343Y-93531082D01*
X143778340Y-93531092D01*
X143749500Y-93676079D01*
X143749500Y-94115500D01*
X143729815Y-94182539D01*
X143677011Y-94228294D01*
X143625500Y-94239500D01*
X143599982Y-94239500D01*
X143497203Y-94250000D01*
X143497202Y-94250001D01*
X143445329Y-94267190D01*
X143330667Y-94305185D01*
X143330662Y-94305187D01*
X143181342Y-94397289D01*
X143057289Y-94521342D01*
X142965187Y-94670662D01*
X142965185Y-94670667D01*
X142946448Y-94727212D01*
X142910001Y-94837202D01*
X142910001Y-94837203D01*
X142910000Y-94837203D01*
X142899500Y-94939982D01*
X142899500Y-96740017D01*
X142910000Y-96842796D01*
X142915865Y-96860494D01*
X142965186Y-97009335D01*
X143057288Y-97158656D01*
X143181344Y-97282712D01*
X143330665Y-97374814D01*
X143497202Y-97429999D01*
X143599990Y-97440500D01*
X143599995Y-97440500D01*
X145400005Y-97440500D01*
X145400010Y-97440500D01*
X145502798Y-97429999D01*
X145669335Y-97374814D01*
X145818656Y-97282712D01*
X145942712Y-97158656D01*
X146034814Y-97009335D01*
X146089999Y-96842798D01*
X146100500Y-96740010D01*
X146100500Y-94939990D01*
X146089999Y-94837202D01*
X146034814Y-94670665D01*
X145942712Y-94521344D01*
X145818656Y-94397288D01*
X145669335Y-94305186D01*
X145502798Y-94250001D01*
X145502796Y-94250000D01*
X145400017Y-94239500D01*
X145400010Y-94239500D01*
X145374500Y-94239500D01*
X145365814Y-94236949D01*
X145356853Y-94238238D01*
X145332812Y-94227259D01*
X145307461Y-94219815D01*
X145301533Y-94212974D01*
X145293297Y-94209213D01*
X145279007Y-94186978D01*
X145261706Y-94167011D01*
X145259418Y-94156496D01*
X145255523Y-94150435D01*
X145250500Y-94115500D01*
X145250500Y-94112229D01*
X145270185Y-94045190D01*
X145286819Y-94024548D01*
X146487819Y-92823548D01*
X146549142Y-92790063D01*
X146618834Y-92795047D01*
X146674767Y-92836919D01*
X146699184Y-92902383D01*
X146699500Y-92911229D01*
X146699500Y-96555949D01*
X146699499Y-96555952D01*
X146728340Y-96700939D01*
X146728342Y-96700945D01*
X146784912Y-96837520D01*
X146784916Y-96837527D01*
X146801412Y-96862215D01*
X146801413Y-96862218D01*
X146867046Y-96960446D01*
X146867052Y-96960453D01*
X147775017Y-97868416D01*
X147879552Y-97972951D01*
X147879555Y-97972953D01*
X147879556Y-97972954D01*
X148002471Y-98055083D01*
X148002474Y-98055085D01*
X148052633Y-98075861D01*
X148059048Y-98078518D01*
X148139056Y-98111659D01*
X148255209Y-98134763D01*
X148278348Y-98139365D01*
X148284049Y-98140500D01*
X148284050Y-98140500D01*
X148284051Y-98140500D01*
X148431886Y-98140500D01*
X154065221Y-98140500D01*
X154132260Y-98160185D01*
X154178015Y-98212989D01*
X154187959Y-98282147D01*
X154158934Y-98345703D01*
X154112673Y-98379061D01*
X154101876Y-98383533D01*
X153995326Y-98454726D01*
X152799787Y-99650265D01*
X152738464Y-99683750D01*
X152692708Y-99685057D01*
X152594486Y-99669500D01*
X152594481Y-99669500D01*
X152405519Y-99669500D01*
X152405514Y-99669500D01*
X152218881Y-99699059D01*
X152039163Y-99757454D01*
X151870800Y-99843240D01*
X151826791Y-99875215D01*
X151717927Y-99954310D01*
X151717925Y-99954312D01*
X151717924Y-99954312D01*
X151584312Y-100087924D01*
X151584312Y-100087925D01*
X151584310Y-100087927D01*
X151543833Y-100143638D01*
X151473240Y-100240800D01*
X151387454Y-100409163D01*
X151329059Y-100588881D01*
X151299500Y-100775513D01*
X151299500Y-100964486D01*
X151329059Y-101151118D01*
X151387454Y-101330836D01*
X151450376Y-101454326D01*
X151473240Y-101499199D01*
X151584310Y-101652073D01*
X151717927Y-101785690D01*
X151870801Y-101896760D01*
X151950347Y-101937290D01*
X152039163Y-101982545D01*
X152039165Y-101982545D01*
X152039168Y-101982547D01*
X152116178Y-102007569D01*
X152173853Y-102047007D01*
X152201051Y-102111366D01*
X152189136Y-102180212D01*
X152141892Y-102231688D01*
X152077859Y-102249500D01*
X142215782Y-102249500D01*
X142148743Y-102229815D01*
X142128101Y-102213181D01*
X141536819Y-101621899D01*
X141503334Y-101560576D01*
X141500500Y-101534218D01*
X141500500Y-100401456D01*
X141468843Y-100242312D01*
X141466697Y-100231523D01*
X141462051Y-100208164D01*
X141436523Y-100146535D01*
X141405886Y-100072571D01*
X141386635Y-100026093D01*
X141386634Y-100026092D01*
X141386632Y-100026086D01*
X141335783Y-99949985D01*
X141277139Y-99862217D01*
X141134686Y-99719764D01*
X141134655Y-99719735D01*
X140781479Y-99366559D01*
X140781459Y-99366537D01*
X140637785Y-99222863D01*
X140637781Y-99222860D01*
X140473920Y-99113371D01*
X140473907Y-99113364D01*
X140326040Y-99052116D01*
X140326034Y-99052114D01*
X140317769Y-99048691D01*
X140291836Y-99037949D01*
X140195188Y-99018724D01*
X140175999Y-99014907D01*
X140098544Y-98999500D01*
X140098541Y-98999500D01*
X139705633Y-98999500D01*
X139638594Y-98979815D01*
X139632746Y-98975817D01*
X139629200Y-98973240D01*
X139460836Y-98887454D01*
X139281118Y-98829059D01*
X139094486Y-98799500D01*
X139094481Y-98799500D01*
X138905519Y-98799500D01*
X138905514Y-98799500D01*
X138718881Y-98829059D01*
X138539163Y-98887454D01*
X138370799Y-98973240D01*
X138367254Y-98975817D01*
X138301448Y-98999298D01*
X138294367Y-98999500D01*
X136455633Y-98999500D01*
X136388594Y-98979815D01*
X136382746Y-98975817D01*
X136379200Y-98973240D01*
X136210836Y-98887454D01*
X136031118Y-98829059D01*
X135844486Y-98799500D01*
X135844481Y-98799500D01*
X135655519Y-98799500D01*
X135655514Y-98799500D01*
X135468881Y-98829059D01*
X135289163Y-98887454D01*
X135120800Y-98973240D01*
X135058198Y-99018724D01*
X134967927Y-99084310D01*
X134967925Y-99084312D01*
X134967924Y-99084312D01*
X134834312Y-99217924D01*
X134834312Y-99217925D01*
X134834310Y-99217927D01*
X134830724Y-99222863D01*
X134723240Y-99370800D01*
X134637454Y-99539165D01*
X134579059Y-99718884D01*
X134578372Y-99723223D01*
X134548437Y-99786356D01*
X134543581Y-99791497D01*
X133621899Y-100713181D01*
X133560576Y-100746666D01*
X133534218Y-100749500D01*
X130638621Y-100749500D01*
X130571582Y-100729815D01*
X130525827Y-100677011D01*
X130515883Y-100607853D01*
X130544908Y-100544297D01*
X130573524Y-100519961D01*
X130618344Y-100492315D01*
X130742315Y-100368344D01*
X130834356Y-100219123D01*
X130834358Y-100219118D01*
X130889505Y-100052696D01*
X130889506Y-100052689D01*
X130899999Y-99949985D01*
X130900000Y-99949972D01*
X130900000Y-99000000D01*
X129600001Y-99000000D01*
X129625021Y-98939598D01*
X129650000Y-98814019D01*
X129650000Y-98685981D01*
X129625021Y-98560402D01*
X129600001Y-98500000D01*
X130900000Y-98500000D01*
X130900000Y-97550027D01*
X130899999Y-97550014D01*
X130889506Y-97447310D01*
X130889505Y-97447303D01*
X130834358Y-97280881D01*
X130834356Y-97280876D01*
X130742315Y-97131655D01*
X130618344Y-97007684D01*
X130469123Y-96915643D01*
X130469118Y-96915641D01*
X130302696Y-96860494D01*
X130302689Y-96860493D01*
X130199985Y-96850000D01*
X129250000Y-96850000D01*
X129250000Y-98149998D01*
X129189598Y-98124979D01*
X129064019Y-98100000D01*
X128935981Y-98100000D01*
X128810402Y-98124979D01*
X128750000Y-98149998D01*
X128750000Y-96850000D01*
X127800014Y-96850000D01*
X127697310Y-96860493D01*
X127697303Y-96860494D01*
X127530881Y-96915641D01*
X127530876Y-96915643D01*
X127381655Y-97007684D01*
X127257684Y-97131655D01*
X127165643Y-97280876D01*
X127165641Y-97280881D01*
X127110494Y-97447303D01*
X127110493Y-97447310D01*
X127100000Y-97550014D01*
X127100000Y-98500000D01*
X128399999Y-98500000D01*
X128374979Y-98560402D01*
X128350000Y-98685981D01*
X128350000Y-98814019D01*
X128374979Y-98939598D01*
X128399999Y-99000000D01*
X127100000Y-99000000D01*
X127100000Y-99949985D01*
X127110493Y-100052689D01*
X127110495Y-100052699D01*
X127140629Y-100143638D01*
X127143031Y-100213466D01*
X127107299Y-100273508D01*
X127044778Y-100304700D01*
X126975319Y-100297139D01*
X126935242Y-100270322D01*
X126786819Y-100121899D01*
X126753334Y-100060576D01*
X126750500Y-100034218D01*
X126750500Y-95215782D01*
X126770185Y-95148743D01*
X126786819Y-95128101D01*
X127128102Y-94786819D01*
X127189425Y-94753334D01*
X127215783Y-94750500D01*
X127311617Y-94750500D01*
X127378656Y-94770185D01*
X127414724Y-94805616D01*
X127416398Y-94808123D01*
X127416400Y-94808126D01*
X127416406Y-94808134D01*
X127568060Y-95005774D01*
X127568066Y-95005781D01*
X127744218Y-95181933D01*
X127744225Y-95181939D01*
X127941873Y-95333599D01*
X128157623Y-95458162D01*
X128157638Y-95458169D01*
X128195665Y-95473920D01*
X128387793Y-95553502D01*
X128628435Y-95617982D01*
X128875435Y-95650500D01*
X128875442Y-95650500D01*
X129124558Y-95650500D01*
X129124565Y-95650500D01*
X129371565Y-95617982D01*
X129612207Y-95553502D01*
X129842373Y-95458164D01*
X130058127Y-95333599D01*
X130255776Y-95181938D01*
X130431938Y-95005776D01*
X130583599Y-94808127D01*
X130708164Y-94592373D01*
X130803502Y-94362207D01*
X130867982Y-94121565D01*
X130900500Y-93874565D01*
X130900500Y-93625435D01*
X130867982Y-93378435D01*
X130867095Y-93375125D01*
X130866105Y-93367731D01*
X130870838Y-93336924D01*
X130873618Y-93305871D01*
X130876221Y-93301899D01*
X130876717Y-93298672D01*
X130882985Y-93291578D01*
X130901325Y-93263593D01*
X131900648Y-92264270D01*
X138000000Y-92264270D01*
X138000000Y-92500375D01*
X138036934Y-92733570D01*
X138109897Y-92958125D01*
X138217087Y-93168497D01*
X138277338Y-93251427D01*
X138277340Y-93251428D01*
X139017037Y-92511731D01*
X139034075Y-92575316D01*
X139099901Y-92689330D01*
X139192993Y-92782422D01*
X139307007Y-92848248D01*
X139370590Y-92865285D01*
X138630893Y-93604981D01*
X138713828Y-93665237D01*
X138924197Y-93772425D01*
X139148752Y-93845388D01*
X139148751Y-93845388D01*
X139381948Y-93882323D01*
X139618052Y-93882323D01*
X139851247Y-93845388D01*
X140075802Y-93772425D01*
X140286163Y-93665241D01*
X140286169Y-93665237D01*
X140369104Y-93604981D01*
X140369105Y-93604981D01*
X139629408Y-92865285D01*
X139692993Y-92848248D01*
X139807007Y-92782422D01*
X139900099Y-92689330D01*
X139965925Y-92575316D01*
X139982962Y-92511732D01*
X140722658Y-93251428D01*
X140722658Y-93251427D01*
X140782914Y-93168492D01*
X140782918Y-93168486D01*
X140890102Y-92958125D01*
X140963065Y-92733570D01*
X141000000Y-92500375D01*
X141000000Y-92264270D01*
X140963065Y-92031075D01*
X140890102Y-91806520D01*
X140782914Y-91596151D01*
X140722658Y-91513217D01*
X140722658Y-91513216D01*
X139982962Y-92252913D01*
X139965925Y-92189330D01*
X139900099Y-92075316D01*
X139807007Y-91982224D01*
X139692993Y-91916398D01*
X139629409Y-91899360D01*
X140369105Y-91159663D01*
X140369104Y-91159661D01*
X140286174Y-91099410D01*
X140075802Y-90992220D01*
X139851247Y-90919257D01*
X139851248Y-90919257D01*
X139618052Y-90882323D01*
X139381948Y-90882323D01*
X139148752Y-90919257D01*
X138924197Y-90992220D01*
X138713830Y-91099407D01*
X138630894Y-91159663D01*
X139370591Y-91899360D01*
X139307007Y-91916398D01*
X139192993Y-91982224D01*
X139099901Y-92075316D01*
X139034075Y-92189330D01*
X139017037Y-92252914D01*
X138277340Y-91513217D01*
X138217084Y-91596153D01*
X138109897Y-91806520D01*
X138036934Y-92031075D01*
X138000000Y-92264270D01*
X131900648Y-92264270D01*
X135745778Y-88419142D01*
X135807101Y-88385657D01*
X135833459Y-88382823D01*
X137954092Y-88382823D01*
X138021131Y-88402508D01*
X138059636Y-88446594D01*
X138061395Y-88445510D01*
X138065185Y-88451654D01*
X138065186Y-88451657D01*
X138157288Y-88600979D01*
X138281344Y-88725035D01*
X138430666Y-88817137D01*
X138597203Y-88872322D01*
X138699991Y-88882823D01*
X140300008Y-88882822D01*
X140402797Y-88872322D01*
X140569334Y-88817137D01*
X140718656Y-88725035D01*
X140842712Y-88600979D01*
X140934814Y-88451657D01*
X140989999Y-88285120D01*
X141000500Y-88182332D01*
X141000499Y-86582315D01*
X140989999Y-86479526D01*
X140934814Y-86312989D01*
X140842712Y-86163667D01*
X140718656Y-86039611D01*
X140569334Y-85947509D01*
X140402797Y-85892324D01*
X140402795Y-85892323D01*
X140300010Y-85881823D01*
X138699998Y-85881823D01*
X138699981Y-85881824D01*
X138597203Y-85892323D01*
X138597200Y-85892324D01*
X138430668Y-85947508D01*
X138430663Y-85947510D01*
X138281342Y-86039612D01*
X138157289Y-86163665D01*
X138140263Y-86191269D01*
X138068539Y-86307554D01*
X138061395Y-86319136D01*
X138059600Y-86318029D01*
X138020313Y-86362660D01*
X137954092Y-86381823D01*
X135269132Y-86381823D01*
X135172489Y-86401047D01*
X135075844Y-86420270D01*
X135075838Y-86420272D01*
X135022511Y-86442360D01*
X135022511Y-86442361D01*
X134976992Y-86461215D01*
X134893766Y-86495689D01*
X134893756Y-86495694D01*
X134729896Y-86605182D01*
X134668031Y-86667048D01*
X134590538Y-86744541D01*
X134590535Y-86744544D01*
X129486406Y-91848672D01*
X129425083Y-91882157D01*
X129374541Y-91882610D01*
X129371563Y-91882017D01*
X129124575Y-91849501D01*
X129124570Y-91849500D01*
X129124565Y-91849500D01*
X128875435Y-91849500D01*
X128875429Y-91849500D01*
X128875424Y-91849501D01*
X128628438Y-91882017D01*
X128387792Y-91946498D01*
X128157638Y-92041830D01*
X128157623Y-92041837D01*
X127941873Y-92166400D01*
X127744225Y-92318060D01*
X127744218Y-92318066D01*
X127568066Y-92494218D01*
X127568060Y-92494225D01*
X127416406Y-92691865D01*
X127414724Y-92694384D01*
X127414027Y-92694966D01*
X127413930Y-92695093D01*
X127413901Y-92695071D01*
X127361115Y-92739192D01*
X127311617Y-92749500D01*
X126854675Y-92749500D01*
X126854655Y-92749499D01*
X126848541Y-92749499D01*
X126651460Y-92749499D01*
X126651457Y-92749499D01*
X126458172Y-92787946D01*
X126458164Y-92787948D01*
X126276088Y-92863366D01*
X126276079Y-92863371D01*
X126112219Y-92972859D01*
X126112215Y-92972862D01*
X125361821Y-93723258D01*
X125112220Y-93972859D01*
X125112218Y-93972861D01*
X125060531Y-94024548D01*
X124972859Y-94112219D01*
X124863371Y-94276079D01*
X124863364Y-94276092D01*
X124829266Y-94358415D01*
X124829266Y-94358416D01*
X124787949Y-94458163D01*
X124786996Y-94462954D01*
X124774229Y-94527139D01*
X124749500Y-94651459D01*
X121500500Y-94651459D01*
X121500500Y-83944681D01*
X121520185Y-83877642D01*
X121572989Y-83831887D01*
X121642147Y-83821943D01*
X121705703Y-83850968D01*
X121712181Y-83857000D01*
X121897915Y-84042734D01*
X122108711Y-84210838D01*
X122337003Y-84354284D01*
X122579921Y-84471267D01*
X122771049Y-84538145D01*
X122834397Y-84560312D01*
X122834405Y-84560315D01*
X122834408Y-84560315D01*
X122834409Y-84560316D01*
X123097268Y-84620312D01*
X123365187Y-84650499D01*
X123365188Y-84650500D01*
X123365191Y-84650500D01*
X123634812Y-84650500D01*
X123634812Y-84650499D01*
X123902732Y-84620312D01*
X124165591Y-84560316D01*
X124420079Y-84471267D01*
X124662997Y-84354284D01*
X124891289Y-84210838D01*
X125102085Y-84042734D01*
X125292734Y-83852085D01*
X125460838Y-83641289D01*
X125604284Y-83412997D01*
X125721267Y-83170079D01*
X125810316Y-82915591D01*
X125870312Y-82652732D01*
X125900500Y-82384809D01*
X125900500Y-82115191D01*
X125870312Y-81847268D01*
X125810316Y-81584409D01*
X125721267Y-81329921D01*
X125604284Y-81087003D01*
X125460838Y-80858711D01*
X125292734Y-80647915D01*
X125107000Y-80462181D01*
X125073515Y-80400858D01*
X125078499Y-80331166D01*
X125120371Y-80275233D01*
X125185835Y-80250816D01*
X125194681Y-80250500D01*
X182055319Y-80250500D01*
X182122358Y-80270185D01*
G37*
%TD.AperFunction*%
%TD*%
M02*
