%TF.GenerationSoftware,KiCad,Pcbnew,10.0.4*%
%TF.CreationDate,2026-08-09T17:48:30+05:30*%
%TF.ProjectId,DC Motor Speed Controller,4443204d-6f74-46f7-9220-537065656420,rev?*%
%TF.SameCoordinates,Original*%
%TF.FileFunction,Copper,L1,Top*%
%TF.FilePolarity,Positive*%
%FSLAX46Y46*%
G04 Gerber Fmt 4.6, Leading zero omitted, Abs format (unit mm)*
G04 Created by KiCad (PCBNEW 10.0.4) date 2026-08-09 17:48:30*
%MOMM*%
%LPD*%
G01*
G04 APERTURE LIST*
G04 Aperture macros list*
%AMRoundRect*
0 Rectangle with rounded corners*
0 $1 Rounding radius*
0 $2 $3 $4 $5 $6 $7 $8 $9 X,Y pos of 4 corners*
0 Add a 4 corners polygon primitive as box body*
4,1,4,$2,$3,$4,$5,$6,$7,$8,$9,$2,$3,0*
0 Add four circle primitives for the rounded corners*
1,1,$1+$1,$2,$3*
1,1,$1+$1,$4,$5*
1,1,$1+$1,$6,$7*
1,1,$1+$1,$8,$9*
0 Add four rect primitives between the rounded corners*
20,1,$1+$1,$2,$3,$4,$5,0*
20,1,$1+$1,$4,$5,$6,$7,0*
20,1,$1+$1,$6,$7,$8,$9,0*
20,1,$1+$1,$8,$9,$2,$3,0*%
G04 Aperture macros list end*
%TA.AperFunction,ComponentPad*%
%ADD10C,1.600000*%
%TD*%
%TA.AperFunction,ComponentPad*%
%ADD11RoundRect,0.250001X-1.149999X1.149999X-1.149999X-1.149999X1.149999X-1.149999X1.149999X1.149999X0*%
%TD*%
%TA.AperFunction,ComponentPad*%
%ADD12C,2.800000*%
%TD*%
%TA.AperFunction,ComponentPad*%
%ADD13RoundRect,0.250001X1.149999X-1.149999X1.149999X1.149999X-1.149999X1.149999X-1.149999X-1.149999X0*%
%TD*%
%TA.AperFunction,ComponentPad*%
%ADD14C,3.800000*%
%TD*%
%TA.AperFunction,ComponentPad*%
%ADD15C,1.400000*%
%TD*%
%TA.AperFunction,ComponentPad*%
%ADD16R,1.800000X1.800000*%
%TD*%
%TA.AperFunction,ComponentPad*%
%ADD17C,1.800000*%
%TD*%
%TA.AperFunction,ComponentPad*%
%ADD18RoundRect,0.249999X-0.850001X0.850001X-0.850001X-0.850001X0.850001X-0.850001X0.850001X0.850001X0*%
%TD*%
%TA.AperFunction,ComponentPad*%
%ADD19C,2.200000*%
%TD*%
%TA.AperFunction,ComponentPad*%
%ADD20RoundRect,0.249999X0.850001X-0.850001X0.850001X0.850001X-0.850001X0.850001X-0.850001X-0.850001X0*%
%TD*%
%TA.AperFunction,ComponentPad*%
%ADD21R,1.905000X2.000000*%
%TD*%
%TA.AperFunction,ComponentPad*%
%ADD22O,1.905000X2.000000*%
%TD*%
%TA.AperFunction,ComponentPad*%
%ADD23RoundRect,0.250000X-0.750000X0.750000X-0.750000X-0.750000X0.750000X-0.750000X0.750000X0.750000X0*%
%TD*%
%TA.AperFunction,ComponentPad*%
%ADD24C,2.000000*%
%TD*%
%TA.AperFunction,ComponentPad*%
%ADD25R,3.000000X3.000000*%
%TD*%
%TA.AperFunction,ComponentPad*%
%ADD26C,3.000000*%
%TD*%
%TA.AperFunction,ComponentPad*%
%ADD27RoundRect,0.250000X-0.550000X-0.550000X0.550000X-0.550000X0.550000X0.550000X-0.550000X0.550000X0*%
%TD*%
%TA.AperFunction,Conductor*%
%ADD28C,0.500000*%
%TD*%
G04 APERTURE END LIST*
D10*
%TO.P,C1,1*%
%TO.N,Net-(U1-THRES)*%
X161250000Y-108000000D03*
%TO.P,C1,2*%
%TO.N,GND*%
X156250000Y-108000000D03*
%TD*%
D11*
%TO.P,J2,1,Pin_1_1*%
%TO.N,Net-(D3-K)*%
X177250000Y-92500000D03*
D12*
%TO.P,J2,2,Pin_2_2*%
%TO.N,Net-(D3-A)*%
X177250000Y-97500000D03*
%TD*%
D13*
%TO.P,J1,1,Pin_1_1*%
%TO.N,GND*%
X129000000Y-98750000D03*
D12*
%TO.P,J1,2,Pin_2_2*%
%TO.N,Net-(D3-K)*%
X129000000Y-93750000D03*
%TD*%
D14*
%TO.P,REF\u002A\u002A,1*%
%TO.N,N/C*%
X183750000Y-111000000D03*
%TD*%
D15*
%TO.P,R3,1*%
%TO.N,Net-(D3-K)*%
X139000000Y-100000000D03*
%TO.P,R3,2*%
%TO.N,Net-(D4-A)*%
X139000000Y-107620000D03*
%TD*%
D16*
%TO.P,D4,1,K_1*%
%TO.N,GND*%
X128210000Y-107500000D03*
D17*
%TO.P,D4,2,A_2*%
%TO.N,Net-(D4-A)*%
X130750000Y-107500000D03*
%TD*%
D14*
%TO.P,REF\u002A\u002A,1*%
%TO.N,N/C*%
X183750000Y-82250000D03*
%TD*%
D18*
%TO.P,D1,1,K_1*%
%TO.N,Net-(D1-K)*%
X144500000Y-95840000D03*
D19*
%TO.P,D1,2,A_2*%
%TO.N,Net-(D1-A)*%
X144500000Y-106000000D03*
%TD*%
D14*
%TO.P,REF\u002A\u002A,1*%
%TO.N,N/C*%
X123500000Y-82250000D03*
%TD*%
D10*
%TO.P,C2,1*%
%TO.N,Net-(U1-CONT)*%
X166000000Y-103000000D03*
%TO.P,C2,2*%
%TO.N,GND*%
X166000000Y-108000000D03*
%TD*%
D20*
%TO.P,D2,1,K_1*%
%TO.N,Net-(D1-A)*%
X149000000Y-106000000D03*
D19*
%TO.P,D2,2,A_2*%
%TO.N,Net-(D2-A)*%
X149000000Y-95840000D03*
%TD*%
D21*
%TO.P,Q1,1,B_1*%
%TO.N,Net-(Q1-B)*%
X169460000Y-84700000D03*
D22*
%TO.P,Q1,2,C_2*%
%TO.N,Net-(D3-A)*%
X172000000Y-84700000D03*
%TO.P,Q1,3,E_3*%
%TO.N,GND*%
X174540000Y-84700000D03*
%TD*%
D23*
%TO.P,C3,1*%
%TO.N,Net-(D3-K)*%
X139500000Y-87382323D03*
D24*
%TO.P,C3,2*%
%TO.N,GND*%
X139500000Y-92382323D03*
%TD*%
D18*
%TO.P,D3,1,K_1*%
%TO.N,Net-(D3-K)*%
X168750000Y-90090000D03*
D19*
%TO.P,D3,2,A_2*%
%TO.N,Net-(D3-A)*%
X168750000Y-100250000D03*
%TD*%
D15*
%TO.P,R2,1*%
%TO.N,Net-(U1-OUT)*%
X152500000Y-100870000D03*
%TO.P,R2,2*%
%TO.N,Net-(Q1-B)*%
X152500000Y-93250000D03*
%TD*%
D25*
%TO.P,100k1,1,1_1*%
%TO.N,Net-(D2-A)*%
X160875000Y-84225000D03*
D26*
%TO.P,100k1,2,2_2*%
%TO.N,Net-(U1-THRES)*%
X155875000Y-84225000D03*
%TO.P,100k1,3,3_3*%
%TO.N,Net-(D1-K)*%
X150875000Y-84225000D03*
%TD*%
D15*
%TO.P,R1,1*%
%TO.N,Net-(D3-K)*%
X135750000Y-100000000D03*
%TO.P,R1,2*%
%TO.N,Net-(D1-A)*%
X135750000Y-107620000D03*
%TD*%
D27*
%TO.P,U1,1,GND_1*%
%TO.N,GND*%
X155630000Y-93880000D03*
D10*
%TO.P,U1,2,TRIG_2*%
%TO.N,Net-(U1-THRES)*%
X155630000Y-96420000D03*
%TO.P,U1,3,OUT_3*%
%TO.N,Net-(U1-OUT)*%
X155630000Y-98960000D03*
%TO.P,U1,4,~{RST}_4*%
%TO.N,Net-(D3-K)*%
X155630000Y-101500000D03*
%TO.P,U1,5,CONT_5*%
%TO.N,Net-(U1-CONT)*%
X163250000Y-101500000D03*
%TO.P,U1,6,THRES_6*%
%TO.N,Net-(U1-THRES)*%
X163250000Y-98960000D03*
%TO.P,U1,7,DISCH_7*%
%TO.N,Net-(D1-A)*%
X163250000Y-96420000D03*
%TO.P,U1,8,VCC_8*%
%TO.N,Net-(D3-K)*%
X163250000Y-93880000D03*
%TD*%
D14*
%TO.P,REF\u002A\u002A,1*%
%TO.N,N/C*%
X123500000Y-111000000D03*
%TD*%
%TO.N,Net-(U1-THRES)*%
D28*
X158170000Y-98960000D02*
X155630000Y-96420000D01*
X163250000Y-98960000D02*
X158170000Y-98960000D01*
%TD*%
%TA.AperFunction,Conductor*%
%TO.N,GND*%
G36*
X182122358Y-80270185D02*
G01*
X182168113Y-80322989D01*
X182178057Y-80392147D01*
X182149032Y-80455703D01*
X182143000Y-80462181D01*
X181957265Y-80647915D01*
X181789161Y-80858712D01*
X181645714Y-81087005D01*
X181528734Y-81329917D01*
X181439687Y-81584397D01*
X181439684Y-81584405D01*
X181379688Y-81847268D01*
X181379686Y-81847280D01*
X181349500Y-82115186D01*
X181349500Y-82384813D01*
X181379686Y-82652719D01*
X181379687Y-82652728D01*
X181379688Y-82652732D01*
X181385258Y-82677135D01*
X181439684Y-82915594D01*
X181439687Y-82915602D01*
X181528734Y-83170082D01*
X181645714Y-83412994D01*
X181645716Y-83412997D01*
X181789162Y-83641289D01*
X181908444Y-83790864D01*
X181933228Y-83821943D01*
X181957266Y-83852085D01*
X182147915Y-84042734D01*
X182358711Y-84210838D01*
X182587003Y-84354284D01*
X182829921Y-84471267D01*
X183021049Y-84538145D01*
X183084397Y-84560312D01*
X183084405Y-84560315D01*
X183084408Y-84560315D01*
X183084409Y-84560316D01*
X183347268Y-84620312D01*
X183615187Y-84650499D01*
X183615188Y-84650500D01*
X183615191Y-84650500D01*
X183884812Y-84650500D01*
X183884812Y-84650499D01*
X184152732Y-84620312D01*
X184415591Y-84560316D01*
X184670079Y-84471267D01*
X184912997Y-84354284D01*
X185141289Y-84210838D01*
X185352085Y-84042734D01*
X185537819Y-83857000D01*
X185599142Y-83823515D01*
X185668834Y-83828499D01*
X185724767Y-83870371D01*
X185749184Y-83935835D01*
X185749500Y-83944681D01*
X185749500Y-109305319D01*
X185729815Y-109372358D01*
X185677011Y-109418113D01*
X185607853Y-109428057D01*
X185544297Y-109399032D01*
X185537819Y-109393000D01*
X185352084Y-109207265D01*
X185298549Y-109164573D01*
X185141289Y-109039162D01*
X184912997Y-108895716D01*
X184912994Y-108895714D01*
X184670082Y-108778734D01*
X184415602Y-108689687D01*
X184415594Y-108689684D01*
X184207051Y-108642086D01*
X184152732Y-108629688D01*
X184152728Y-108629687D01*
X184152719Y-108629686D01*
X183884813Y-108599500D01*
X183884809Y-108599500D01*
X183615191Y-108599500D01*
X183615186Y-108599500D01*
X183347280Y-108629686D01*
X183347268Y-108629688D01*
X183084405Y-108689684D01*
X183084397Y-108689687D01*
X182829917Y-108778734D01*
X182587005Y-108895714D01*
X182358712Y-109039161D01*
X182147915Y-109207265D01*
X181957265Y-109397915D01*
X181789161Y-109608712D01*
X181645714Y-109837005D01*
X181528734Y-110079917D01*
X181439687Y-110334397D01*
X181439684Y-110334405D01*
X181379688Y-110597268D01*
X181379686Y-110597280D01*
X181349500Y-110865186D01*
X181349500Y-111134813D01*
X181379686Y-111402719D01*
X181379688Y-111402731D01*
X181439684Y-111665594D01*
X181439687Y-111665602D01*
X181528734Y-111920082D01*
X181645714Y-112162994D01*
X181645716Y-112162997D01*
X181789162Y-112391289D01*
X181914573Y-112548549D01*
X181957265Y-112602084D01*
X182143000Y-112787819D01*
X182176485Y-112849142D01*
X182171501Y-112918834D01*
X182129629Y-112974767D01*
X182064165Y-112999184D01*
X182055319Y-112999500D01*
X125194681Y-112999500D01*
X125127642Y-112979815D01*
X125081887Y-112927011D01*
X125071943Y-112857853D01*
X125100968Y-112794297D01*
X125107000Y-112787819D01*
X125292734Y-112602085D01*
X125460838Y-112391289D01*
X125604284Y-112162997D01*
X125721267Y-111920079D01*
X125810316Y-111665591D01*
X125870312Y-111402732D01*
X125900500Y-111134809D01*
X125900500Y-110865191D01*
X125870312Y-110597268D01*
X125810316Y-110334409D01*
X125721267Y-110079921D01*
X125604284Y-109837003D01*
X125460838Y-109608711D01*
X125292734Y-109397915D01*
X125102085Y-109207266D01*
X125102084Y-109207265D01*
X125004146Y-109129162D01*
X125004144Y-109129160D01*
X124891293Y-109039164D01*
X124891291Y-109039163D01*
X124662994Y-108895714D01*
X124420082Y-108778734D01*
X124165602Y-108689687D01*
X124165594Y-108689684D01*
X123957051Y-108642086D01*
X123902732Y-108629688D01*
X123902728Y-108629687D01*
X123902719Y-108629686D01*
X123634813Y-108599500D01*
X123634809Y-108599500D01*
X123365191Y-108599500D01*
X123365186Y-108599500D01*
X123097280Y-108629686D01*
X123097268Y-108629688D01*
X122834405Y-108689684D01*
X122834397Y-108689687D01*
X122579917Y-108778734D01*
X122337005Y-108895714D01*
X122108712Y-109039161D01*
X121897915Y-109207265D01*
X121712181Y-109393000D01*
X121650858Y-109426485D01*
X121581166Y-109421501D01*
X121525233Y-109379629D01*
X121500816Y-109314165D01*
X121500500Y-109305319D01*
X121500500Y-106552155D01*
X126810000Y-106552155D01*
X126810000Y-107250000D01*
X127834722Y-107250000D01*
X127790667Y-107326306D01*
X127760000Y-107440756D01*
X127760000Y-107559244D01*
X127790667Y-107673694D01*
X127834722Y-107750000D01*
X126810000Y-107750000D01*
X126810000Y-108447844D01*
X126816401Y-108507372D01*
X126816403Y-108507379D01*
X126866645Y-108642086D01*
X126866649Y-108642093D01*
X126952809Y-108757187D01*
X126952812Y-108757190D01*
X127067906Y-108843350D01*
X127067913Y-108843354D01*
X127202620Y-108893596D01*
X127202627Y-108893598D01*
X127262155Y-108899999D01*
X127262172Y-108900000D01*
X127960000Y-108900000D01*
X127960000Y-107875277D01*
X128036306Y-107919333D01*
X128150756Y-107950000D01*
X128269244Y-107950000D01*
X128383694Y-107919333D01*
X128460000Y-107875277D01*
X128460000Y-108900000D01*
X129157828Y-108900000D01*
X129157844Y-108899999D01*
X129217372Y-108893598D01*
X129217379Y-108893596D01*
X129352086Y-108843354D01*
X129352093Y-108843350D01*
X129467187Y-108757190D01*
X129467190Y-108757187D01*
X129553350Y-108642093D01*
X129553354Y-108642086D01*
X129583213Y-108562031D01*
X129625084Y-108506097D01*
X129690548Y-108481680D01*
X129758821Y-108496531D01*
X129787076Y-108517683D01*
X129837636Y-108568243D01*
X129837641Y-108568247D01*
X129945705Y-108646759D01*
X130015978Y-108697815D01*
X130132501Y-108757187D01*
X130212393Y-108797895D01*
X130212396Y-108797896D01*
X130281966Y-108820500D01*
X130422049Y-108866015D01*
X130639778Y-108900500D01*
X130639779Y-108900500D01*
X130860221Y-108900500D01*
X130860222Y-108900500D01*
X131077951Y-108866015D01*
X131287606Y-108797895D01*
X131484022Y-108697815D01*
X131662365Y-108568242D01*
X131818242Y-108412365D01*
X131947815Y-108234022D01*
X132047895Y-108037606D01*
X132116015Y-107827951D01*
X132150500Y-107610222D01*
X132150500Y-107525513D01*
X134549500Y-107525513D01*
X134549500Y-107714486D01*
X134579059Y-107901118D01*
X134637454Y-108080836D01*
X134715507Y-108234022D01*
X134723240Y-108249199D01*
X134834310Y-108402073D01*
X134967927Y-108535690D01*
X135120801Y-108646760D01*
X135188686Y-108681349D01*
X135289163Y-108732545D01*
X135289165Y-108732545D01*
X135289168Y-108732547D01*
X135365002Y-108757187D01*
X135468881Y-108790940D01*
X135655514Y-108820500D01*
X135655519Y-108820500D01*
X135844486Y-108820500D01*
X136031118Y-108790940D01*
X136068687Y-108778733D01*
X136210832Y-108732547D01*
X136379199Y-108646760D01*
X136532073Y-108535690D01*
X136665690Y-108402073D01*
X136776760Y-108249199D01*
X136862547Y-108080832D01*
X136920940Y-107901118D01*
X136929732Y-107845606D01*
X136950500Y-107714486D01*
X136950500Y-107525513D01*
X137799500Y-107525513D01*
X137799500Y-107714486D01*
X137829059Y-107901118D01*
X137887454Y-108080836D01*
X137965507Y-108234022D01*
X137973240Y-108249199D01*
X138084310Y-108402073D01*
X138217927Y-108535690D01*
X138370801Y-108646760D01*
X138438686Y-108681349D01*
X138539163Y-108732545D01*
X138539165Y-108732545D01*
X138539168Y-108732547D01*
X138615002Y-108757187D01*
X138718881Y-108790940D01*
X138905514Y-108820500D01*
X138905519Y-108820500D01*
X139094486Y-108820500D01*
X139281118Y-108790940D01*
X139318687Y-108778733D01*
X139460832Y-108732547D01*
X139629199Y-108646760D01*
X139782073Y-108535690D01*
X139915690Y-108402073D01*
X140026760Y-108249199D01*
X140112547Y-108080832D01*
X140170940Y-107901118D01*
X140171484Y-107897682D01*
X154950000Y-107897682D01*
X154950000Y-108102317D01*
X154982009Y-108304417D01*
X155045244Y-108499031D01*
X155138141Y-108681350D01*
X155138147Y-108681359D01*
X155170523Y-108725921D01*
X155170524Y-108725922D01*
X155850000Y-108046446D01*
X155850000Y-108052661D01*
X155877259Y-108154394D01*
X155929920Y-108245606D01*
X156004394Y-108320080D01*
X156095606Y-108372741D01*
X156197339Y-108400000D01*
X156203553Y-108400000D01*
X155524076Y-109079474D01*
X155568650Y-109111859D01*
X155750968Y-109204755D01*
X155945582Y-109267990D01*
X156147683Y-109300000D01*
X156352317Y-109300000D01*
X156554417Y-109267990D01*
X156749031Y-109204755D01*
X156931349Y-109111859D01*
X156975921Y-109079474D01*
X156296447Y-108400000D01*
X156302661Y-108400000D01*
X156404394Y-108372741D01*
X156495606Y-108320080D01*
X156570080Y-108245606D01*
X156622741Y-108154394D01*
X156650000Y-108052661D01*
X156650000Y-108046448D01*
X157329474Y-108725922D01*
X157329474Y-108725921D01*
X157361859Y-108681349D01*
X157454755Y-108499031D01*
X157517990Y-108304417D01*
X157550000Y-108102317D01*
X157550000Y-107897682D01*
X157549995Y-107897648D01*
X159949500Y-107897648D01*
X159949500Y-108102351D01*
X159981522Y-108304534D01*
X160044781Y-108499223D01*
X160095876Y-108599500D01*
X160137585Y-108681359D01*
X160137715Y-108681613D01*
X160258028Y-108847213D01*
X160402786Y-108991971D01*
X160523226Y-109079474D01*
X160568390Y-109112287D01*
X160684607Y-109171503D01*
X160750776Y-109205218D01*
X160750778Y-109205218D01*
X160750781Y-109205220D01*
X160855137Y-109239127D01*
X160945465Y-109268477D01*
X161046557Y-109284488D01*
X161147648Y-109300500D01*
X161147649Y-109300500D01*
X161352351Y-109300500D01*
X161352352Y-109300500D01*
X161554534Y-109268477D01*
X161749219Y-109205220D01*
X161931610Y-109112287D01*
X162032260Y-109039161D01*
X162097213Y-108991971D01*
X162097215Y-108991968D01*
X162097219Y-108991966D01*
X162241966Y-108847219D01*
X162241968Y-108847215D01*
X162241971Y-108847213D01*
X162307375Y-108757190D01*
X162362287Y-108681610D01*
X162455220Y-108499219D01*
X162518477Y-108304534D01*
X162550500Y-108102352D01*
X162550500Y-107897682D01*
X164700000Y-107897682D01*
X164700000Y-108102317D01*
X164732009Y-108304417D01*
X164795244Y-108499031D01*
X164888141Y-108681350D01*
X164888147Y-108681359D01*
X164920523Y-108725921D01*
X164920524Y-108725922D01*
X165600000Y-108046446D01*
X165600000Y-108052661D01*
X165627259Y-108154394D01*
X165679920Y-108245606D01*
X165754394Y-108320080D01*
X165845606Y-108372741D01*
X165947339Y-108400000D01*
X165953553Y-108400000D01*
X165274076Y-109079474D01*
X165318650Y-109111859D01*
X165500968Y-109204755D01*
X165695582Y-109267990D01*
X165897683Y-109300000D01*
X166102317Y-109300000D01*
X166304417Y-109267990D01*
X166499031Y-109204755D01*
X166681349Y-109111859D01*
X166725921Y-109079474D01*
X166046447Y-108400000D01*
X166052661Y-108400000D01*
X166154394Y-108372741D01*
X166245606Y-108320080D01*
X166320080Y-108245606D01*
X166372741Y-108154394D01*
X166400000Y-108052661D01*
X166400000Y-108046447D01*
X167079474Y-108725921D01*
X167111859Y-108681349D01*
X167204755Y-108499031D01*
X167267990Y-108304417D01*
X167300000Y-108102317D01*
X167300000Y-107897682D01*
X167267990Y-107695582D01*
X167204755Y-107500968D01*
X167111859Y-107318650D01*
X167079474Y-107274077D01*
X167079474Y-107274076D01*
X166400000Y-107953551D01*
X166400000Y-107947339D01*
X166372741Y-107845606D01*
X166320080Y-107754394D01*
X166245606Y-107679920D01*
X166154394Y-107627259D01*
X166052661Y-107600000D01*
X166046446Y-107600000D01*
X166725922Y-106920524D01*
X166725921Y-106920523D01*
X166681359Y-106888147D01*
X166681350Y-106888141D01*
X166499031Y-106795244D01*
X166304417Y-106732009D01*
X166102317Y-106700000D01*
X165897683Y-106700000D01*
X165695582Y-106732009D01*
X165500968Y-106795244D01*
X165318644Y-106888143D01*
X165274077Y-106920523D01*
X165274077Y-106920524D01*
X165953554Y-107600000D01*
X165947339Y-107600000D01*
X165845606Y-107627259D01*
X165754394Y-107679920D01*
X165679920Y-107754394D01*
X165627259Y-107845606D01*
X165600000Y-107947339D01*
X165600000Y-107953553D01*
X164920524Y-107274077D01*
X164920523Y-107274077D01*
X164888143Y-107318644D01*
X164795244Y-107500968D01*
X164732009Y-107695582D01*
X164700000Y-107897682D01*
X162550500Y-107897682D01*
X162550500Y-107897648D01*
X162531281Y-107776306D01*
X162518477Y-107695465D01*
X162484208Y-107589998D01*
X162455220Y-107500781D01*
X162455218Y-107500778D01*
X162455218Y-107500776D01*
X162398661Y-107389778D01*
X162362287Y-107318390D01*
X162330092Y-107274077D01*
X162241971Y-107152786D01*
X162097213Y-107008028D01*
X161931613Y-106887715D01*
X161931612Y-106887714D01*
X161931610Y-106887713D01*
X161874653Y-106858691D01*
X161749223Y-106794781D01*
X161554534Y-106731522D01*
X161379995Y-106703878D01*
X161352352Y-106699500D01*
X161147648Y-106699500D01*
X161123329Y-106703351D01*
X160945465Y-106731522D01*
X160750776Y-106794781D01*
X160568386Y-106887715D01*
X160402786Y-107008028D01*
X160258028Y-107152786D01*
X160137715Y-107318386D01*
X160044781Y-107500776D01*
X159981522Y-107695465D01*
X159949500Y-107897648D01*
X157549995Y-107897648D01*
X157517990Y-107695582D01*
X157454755Y-107500968D01*
X157361859Y-107318650D01*
X157329474Y-107274077D01*
X157329474Y-107274076D01*
X156650000Y-107953551D01*
X156650000Y-107947339D01*
X156622741Y-107845606D01*
X156570080Y-107754394D01*
X156495606Y-107679920D01*
X156404394Y-107627259D01*
X156302661Y-107600000D01*
X156296446Y-107600000D01*
X156975922Y-106920524D01*
X156975921Y-106920523D01*
X156931359Y-106888147D01*
X156931350Y-106888141D01*
X156749031Y-106795244D01*
X156554417Y-106732009D01*
X156352317Y-106700000D01*
X156147683Y-106700000D01*
X155945582Y-106732009D01*
X155750968Y-106795244D01*
X155568644Y-106888143D01*
X155524077Y-106920523D01*
X155524077Y-106920524D01*
X156203554Y-107600000D01*
X156197339Y-107600000D01*
X156095606Y-107627259D01*
X156004394Y-107679920D01*
X155929920Y-107754394D01*
X155877259Y-107845606D01*
X155850000Y-107947339D01*
X155850000Y-107953553D01*
X155170524Y-107274077D01*
X155170523Y-107274077D01*
X155138143Y-107318644D01*
X155045244Y-107500968D01*
X154982009Y-107695582D01*
X154950000Y-107897682D01*
X140171484Y-107897682D01*
X140190708Y-107776306D01*
X140200500Y-107714486D01*
X140200500Y-107525513D01*
X140170940Y-107338881D01*
X140132572Y-107220798D01*
X140112547Y-107159168D01*
X140112545Y-107159165D01*
X140112545Y-107159163D01*
X140053178Y-107042649D01*
X140026760Y-106990801D01*
X139915690Y-106837927D01*
X139782073Y-106704310D01*
X139629199Y-106593240D01*
X139618210Y-106587641D01*
X139460836Y-106507454D01*
X139281118Y-106449059D01*
X139094486Y-106419500D01*
X139094481Y-106419500D01*
X138905519Y-106419500D01*
X138905514Y-106419500D01*
X138718881Y-106449059D01*
X138539163Y-106507454D01*
X138370800Y-106593240D01*
X138341700Y-106614383D01*
X138217927Y-106704310D01*
X138217925Y-106704312D01*
X138217924Y-106704312D01*
X138084312Y-106837924D01*
X138084312Y-106837925D01*
X138084310Y-106837927D01*
X138083641Y-106838848D01*
X137973240Y-106990800D01*
X137887454Y-107159163D01*
X137829059Y-107338881D01*
X137799500Y-107525513D01*
X136950500Y-107525513D01*
X136920940Y-107338881D01*
X136882572Y-107220798D01*
X136862547Y-107159168D01*
X136862545Y-107159165D01*
X136862545Y-107159163D01*
X136803178Y-107042649D01*
X136776760Y-106990801D01*
X136665690Y-106837927D01*
X136532073Y-106704310D01*
X136379199Y-106593240D01*
X136368210Y-106587641D01*
X136210836Y-106507454D01*
X136031118Y-106449059D01*
X135844486Y-106419500D01*
X135844481Y-106419500D01*
X135655519Y-106419500D01*
X135655514Y-106419500D01*
X135468881Y-106449059D01*
X135289163Y-106507454D01*
X135120800Y-106593240D01*
X135091700Y-106614383D01*
X134967927Y-106704310D01*
X134967925Y-106704312D01*
X134967924Y-106704312D01*
X134834312Y-106837924D01*
X134834312Y-106837925D01*
X134834310Y-106837927D01*
X134833641Y-106838848D01*
X134723240Y-106990800D01*
X134637454Y-107159163D01*
X134579059Y-107338881D01*
X134549500Y-107525513D01*
X132150500Y-107525513D01*
X132150500Y-107389778D01*
X132116015Y-107172049D01*
X132081955Y-107067221D01*
X132047896Y-106962396D01*
X132047895Y-106962393D01*
X132009843Y-106887713D01*
X131947815Y-106765978D01*
X131903011Y-106704310D01*
X131818247Y-106587641D01*
X131818243Y-106587636D01*
X131662363Y-106431756D01*
X131662358Y-106431752D01*
X131484025Y-106302187D01*
X131484024Y-106302186D01*
X131484022Y-106302185D01*
X131421096Y-106270122D01*
X131287606Y-106202104D01*
X131287603Y-106202103D01*
X131077952Y-106133985D01*
X130969086Y-106116742D01*
X130860222Y-106099500D01*
X130639778Y-106099500D01*
X130567201Y-106110995D01*
X130422047Y-106133985D01*
X130212396Y-106202103D01*
X130212393Y-106202104D01*
X130015974Y-106302187D01*
X129837641Y-106431752D01*
X129837636Y-106431756D01*
X129787075Y-106482317D01*
X129725752Y-106515801D01*
X129656060Y-106510816D01*
X129600127Y-106468945D01*
X129583213Y-106437968D01*
X129553354Y-106357913D01*
X129553350Y-106357906D01*
X129467190Y-106242812D01*
X129467187Y-106242809D01*
X129352093Y-106156649D01*
X129352086Y-106156645D01*
X129217379Y-106106403D01*
X129217372Y-106106401D01*
X129157844Y-106100000D01*
X128460000Y-106100000D01*
X128460000Y-107124722D01*
X128383694Y-107080667D01*
X128269244Y-107050000D01*
X128150756Y-107050000D01*
X128036306Y-107080667D01*
X127960000Y-107124722D01*
X127960000Y-106100000D01*
X127262155Y-106100000D01*
X127202627Y-106106401D01*
X127202620Y-106106403D01*
X127067913Y-106156645D01*
X127067906Y-106156649D01*
X126952812Y-106242809D01*
X126952809Y-106242812D01*
X126866649Y-106357906D01*
X126866645Y-106357913D01*
X126816403Y-106492620D01*
X126816401Y-106492627D01*
X126810000Y-106552155D01*
X121500500Y-106552155D01*
X121500500Y-105874038D01*
X142899500Y-105874038D01*
X142899500Y-106125962D01*
X142911560Y-106202103D01*
X142938910Y-106374785D01*
X143016760Y-106614383D01*
X143060130Y-106699500D01*
X143130662Y-106837927D01*
X143131132Y-106838848D01*
X143279201Y-107042649D01*
X143279205Y-107042654D01*
X143457345Y-107220794D01*
X143457350Y-107220798D01*
X143619879Y-107338881D01*
X143661155Y-107368870D01*
X143802239Y-107440756D01*
X143885616Y-107483239D01*
X143885618Y-107483239D01*
X143885621Y-107483241D01*
X144125215Y-107561090D01*
X144374038Y-107600500D01*
X144374039Y-107600500D01*
X144625961Y-107600500D01*
X144625962Y-107600500D01*
X144874785Y-107561090D01*
X145114379Y-107483241D01*
X145338845Y-107368870D01*
X145542656Y-107220793D01*
X145720793Y-107042656D01*
X145868870Y-106838845D01*
X145983241Y-106614379D01*
X146061090Y-106374785D01*
X146100500Y-106125962D01*
X146100500Y-105874038D01*
X146061090Y-105625215D01*
X145983241Y-105385621D01*
X145983239Y-105385618D01*
X145983239Y-105385616D01*
X145868869Y-105161154D01*
X145868865Y-105161148D01*
X145824426Y-105099982D01*
X147399500Y-105099982D01*
X147399500Y-106900017D01*
X147410000Y-107002796D01*
X147459702Y-107152786D01*
X147465186Y-107169335D01*
X147557288Y-107318656D01*
X147681344Y-107442712D01*
X147830665Y-107534814D01*
X147997202Y-107589999D01*
X148099990Y-107600500D01*
X148099995Y-107600500D01*
X149900005Y-107600500D01*
X149900010Y-107600500D01*
X150002798Y-107589999D01*
X150169335Y-107534814D01*
X150318656Y-107442712D01*
X150442712Y-107318656D01*
X150534814Y-107169335D01*
X150589999Y-107002798D01*
X150600500Y-106900010D01*
X150600500Y-105099990D01*
X150589999Y-104997202D01*
X150534814Y-104830665D01*
X150442712Y-104681344D01*
X150318656Y-104557288D01*
X150169335Y-104465186D01*
X150002798Y-104410001D01*
X150002796Y-104410000D01*
X149900017Y-104399500D01*
X149900010Y-104399500D01*
X148099990Y-104399500D01*
X148099982Y-104399500D01*
X147997203Y-104410000D01*
X147997202Y-104410001D01*
X147914669Y-104437349D01*
X147830667Y-104465185D01*
X147830662Y-104465187D01*
X147681342Y-104557289D01*
X147557289Y-104681342D01*
X147465187Y-104830662D01*
X147465186Y-104830665D01*
X147410001Y-104997202D01*
X147410001Y-104997203D01*
X147410000Y-104997203D01*
X147399500Y-105099982D01*
X145824426Y-105099982D01*
X145720798Y-104957350D01*
X145720794Y-104957345D01*
X145542654Y-104779205D01*
X145542649Y-104779201D01*
X145338848Y-104631132D01*
X145338847Y-104631131D01*
X145338845Y-104631130D01*
X145268747Y-104595413D01*
X145114383Y-104516760D01*
X144874785Y-104438910D01*
X144625962Y-104399500D01*
X144374038Y-104399500D01*
X144307738Y-104410001D01*
X144125214Y-104438910D01*
X143885616Y-104516760D01*
X143661151Y-104631132D01*
X143457350Y-104779201D01*
X143457345Y-104779205D01*
X143279205Y-104957345D01*
X143279201Y-104957350D01*
X143131132Y-105161151D01*
X143016760Y-105385616D01*
X142938910Y-105625214D01*
X142938910Y-105625215D01*
X142899500Y-105874038D01*
X121500500Y-105874038D01*
X121500500Y-102897648D01*
X164699500Y-102897648D01*
X164699500Y-103102351D01*
X164731522Y-103304534D01*
X164794781Y-103499223D01*
X164887715Y-103681613D01*
X165008028Y-103847213D01*
X165152786Y-103991971D01*
X165307749Y-104104556D01*
X165318390Y-104112287D01*
X165434607Y-104171503D01*
X165500776Y-104205218D01*
X165500778Y-104205218D01*
X165500781Y-104205220D01*
X165605137Y-104239127D01*
X165695465Y-104268477D01*
X165796557Y-104284488D01*
X165897648Y-104300500D01*
X165897649Y-104300500D01*
X166102351Y-104300500D01*
X166102352Y-104300500D01*
X166304534Y-104268477D01*
X166499219Y-104205220D01*
X166681610Y-104112287D01*
X166774590Y-104044732D01*
X166847213Y-103991971D01*
X166847215Y-103991968D01*
X166847219Y-103991966D01*
X166991966Y-103847219D01*
X166991968Y-103847215D01*
X166991971Y-103847213D01*
X167044732Y-103774590D01*
X167112287Y-103681610D01*
X167205220Y-103499219D01*
X167268477Y-103304534D01*
X167300500Y-103102352D01*
X167300500Y-102897648D01*
X167268477Y-102695466D01*
X167205220Y-102500781D01*
X167205218Y-102500778D01*
X167205218Y-102500776D01*
X167171503Y-102434607D01*
X167112287Y-102318390D01*
X167104556Y-102307749D01*
X166991971Y-102152786D01*
X166847213Y-102008028D01*
X166681613Y-101887715D01*
X166681612Y-101887714D01*
X166681610Y-101887713D01*
X166624653Y-101858691D01*
X166499223Y-101794781D01*
X166304534Y-101731522D01*
X166129995Y-101703878D01*
X166102352Y-101699500D01*
X165897648Y-101699500D01*
X165873329Y-101703351D01*
X165695465Y-101731522D01*
X165500776Y-101794781D01*
X165318386Y-101887715D01*
X165152786Y-102008028D01*
X165008028Y-102152786D01*
X164887715Y-102318386D01*
X164794781Y-102500776D01*
X164731522Y-102695465D01*
X164699500Y-102897648D01*
X121500500Y-102897648D01*
X121500500Y-97550014D01*
X127100000Y-97550014D01*
X127100000Y-98500000D01*
X128399999Y-98500000D01*
X128374979Y-98560402D01*
X128350000Y-98685981D01*
X128350000Y-98814019D01*
X128374979Y-98939598D01*
X128399999Y-99000000D01*
X127100000Y-99000000D01*
X127100000Y-99949985D01*
X127110493Y-100052689D01*
X127110494Y-100052696D01*
X127165641Y-100219118D01*
X127165643Y-100219123D01*
X127257684Y-100368344D01*
X127381655Y-100492315D01*
X127530876Y-100584356D01*
X127530881Y-100584358D01*
X127697303Y-100639505D01*
X127697310Y-100639506D01*
X127800014Y-100649999D01*
X127800027Y-100650000D01*
X128750000Y-100650000D01*
X128750000Y-99350001D01*
X128810402Y-99375021D01*
X128935981Y-99400000D01*
X129064019Y-99400000D01*
X129189598Y-99375021D01*
X129250000Y-99350001D01*
X129250000Y-100650000D01*
X130199973Y-100650000D01*
X130199985Y-100649999D01*
X130302689Y-100639506D01*
X130302696Y-100639505D01*
X130469118Y-100584358D01*
X130469123Y-100584356D01*
X130618344Y-100492315D01*
X130742315Y-100368344D01*
X130834356Y-100219123D01*
X130834358Y-100219118D01*
X130889505Y-100052696D01*
X130889506Y-100052689D01*
X130899999Y-99949985D01*
X130900000Y-99949972D01*
X130900000Y-99905513D01*
X134549500Y-99905513D01*
X134549500Y-100094486D01*
X134579059Y-100281118D01*
X134637454Y-100460836D01*
X134720991Y-100624785D01*
X134723240Y-100629199D01*
X134834310Y-100782073D01*
X134967927Y-100915690D01*
X135120801Y-101026760D01*
X135200347Y-101067290D01*
X135289163Y-101112545D01*
X135289165Y-101112545D01*
X135289168Y-101112547D01*
X135385497Y-101143846D01*
X135468881Y-101170940D01*
X135655514Y-101200500D01*
X135655519Y-101200500D01*
X135844486Y-101200500D01*
X136031118Y-101170940D01*
X136092123Y-101151118D01*
X136210832Y-101112547D01*
X136379199Y-101026760D01*
X136532073Y-100915690D01*
X136665690Y-100782073D01*
X136776760Y-100629199D01*
X136862547Y-100460832D01*
X136920940Y-100281118D01*
X136925662Y-100251302D01*
X136950500Y-100094486D01*
X136950500Y-99905513D01*
X137799500Y-99905513D01*
X137799500Y-100094486D01*
X137829059Y-100281118D01*
X137887454Y-100460836D01*
X137970991Y-100624785D01*
X137973240Y-100629199D01*
X138084310Y-100782073D01*
X138217927Y-100915690D01*
X138370801Y-101026760D01*
X138450347Y-101067290D01*
X138539163Y-101112545D01*
X138539165Y-101112545D01*
X138539168Y-101112547D01*
X138635497Y-101143846D01*
X138718881Y-101170940D01*
X138905514Y-101200500D01*
X138905519Y-101200500D01*
X139094486Y-101200500D01*
X139281118Y-101170940D01*
X139342123Y-101151118D01*
X139460832Y-101112547D01*
X139629199Y-101026760D01*
X139782073Y-100915690D01*
X139915690Y-100782073D01*
X139920456Y-100775513D01*
X151299500Y-100775513D01*
X151299500Y-100964486D01*
X151329059Y-101151118D01*
X151387454Y-101330836D01*
X151421497Y-101397648D01*
X151473240Y-101499199D01*
X151584310Y-101652073D01*
X151717927Y-101785690D01*
X151870801Y-101896760D01*
X151950347Y-101937290D01*
X152039163Y-101982545D01*
X152039165Y-101982545D01*
X152039168Y-101982547D01*
X152135497Y-102013846D01*
X152218881Y-102040940D01*
X152405514Y-102070500D01*
X152405519Y-102070500D01*
X152594486Y-102070500D01*
X152781118Y-102040940D01*
X152960832Y-101982547D01*
X153129199Y-101896760D01*
X153282073Y-101785690D01*
X153415690Y-101652073D01*
X153526760Y-101499199D01*
X153612547Y-101330832D01*
X153670940Y-101151118D01*
X153677049Y-101112545D01*
X153700500Y-100964486D01*
X153700500Y-100775513D01*
X153670940Y-100588881D01*
X153612545Y-100409163D01*
X153557660Y-100301446D01*
X153526760Y-100240801D01*
X153415690Y-100087927D01*
X153282073Y-99954310D01*
X153129199Y-99843240D01*
X153058504Y-99807219D01*
X152960836Y-99757454D01*
X152781118Y-99699059D01*
X152594486Y-99669500D01*
X152594481Y-99669500D01*
X152405519Y-99669500D01*
X152405514Y-99669500D01*
X152218881Y-99699059D01*
X152039163Y-99757454D01*
X151870800Y-99843240D01*
X151826791Y-99875215D01*
X151717927Y-99954310D01*
X151717925Y-99954312D01*
X151717924Y-99954312D01*
X151584312Y-100087924D01*
X151584312Y-100087925D01*
X151584310Y-100087927D01*
X151579545Y-100094486D01*
X151473240Y-100240800D01*
X151387454Y-100409163D01*
X151329059Y-100588881D01*
X151299500Y-100775513D01*
X139920456Y-100775513D01*
X140026760Y-100629199D01*
X140112547Y-100460832D01*
X140170940Y-100281118D01*
X140175662Y-100251302D01*
X140200500Y-100094486D01*
X140200500Y-99905513D01*
X140170940Y-99718881D01*
X140140462Y-99625080D01*
X140112547Y-99539168D01*
X140112545Y-99539165D01*
X140112545Y-99539163D01*
X140041891Y-99400498D01*
X140026760Y-99370801D01*
X139915690Y-99217927D01*
X139782073Y-99084310D01*
X139629199Y-98973240D01*
X139460836Y-98887454D01*
X139281118Y-98829059D01*
X139094486Y-98799500D01*
X139094481Y-98799500D01*
X138905519Y-98799500D01*
X138905514Y-98799500D01*
X138718881Y-98829059D01*
X138539163Y-98887454D01*
X138370800Y-98973240D01*
X138344567Y-98992300D01*
X138217927Y-99084310D01*
X138217925Y-99084312D01*
X138217924Y-99084312D01*
X138084312Y-99217924D01*
X138084312Y-99217925D01*
X138084310Y-99217927D01*
X138057456Y-99254888D01*
X137973240Y-99370800D01*
X137887454Y-99539163D01*
X137829059Y-99718881D01*
X137799500Y-99905513D01*
X136950500Y-99905513D01*
X136920940Y-99718881D01*
X136890462Y-99625080D01*
X136862547Y-99539168D01*
X136862545Y-99539165D01*
X136862545Y-99539163D01*
X136791891Y-99400498D01*
X136776760Y-99370801D01*
X136665690Y-99217927D01*
X136532073Y-99084310D01*
X136379199Y-98973240D01*
X136210836Y-98887454D01*
X136031118Y-98829059D01*
X135844486Y-98799500D01*
X135844481Y-98799500D01*
X135655519Y-98799500D01*
X135655514Y-98799500D01*
X135468881Y-98829059D01*
X135289163Y-98887454D01*
X135120800Y-98973240D01*
X135094567Y-98992300D01*
X134967927Y-99084310D01*
X134967925Y-99084312D01*
X134967924Y-99084312D01*
X134834312Y-99217924D01*
X134834312Y-99217925D01*
X134834310Y-99217927D01*
X134807456Y-99254888D01*
X134723240Y-99370800D01*
X134637454Y-99539163D01*
X134579059Y-99718881D01*
X134549500Y-99905513D01*
X130900000Y-99905513D01*
X130900000Y-99000000D01*
X129600001Y-99000000D01*
X129625021Y-98939598D01*
X129650000Y-98814019D01*
X129650000Y-98685981D01*
X129625021Y-98560402D01*
X129600001Y-98500000D01*
X130900000Y-98500000D01*
X130900000Y-97550027D01*
X130899999Y-97550014D01*
X130889506Y-97447310D01*
X130889505Y-97447303D01*
X130834358Y-97280881D01*
X130834356Y-97280876D01*
X130742315Y-97131655D01*
X130618344Y-97007684D01*
X130469123Y-96915643D01*
X130469118Y-96915641D01*
X130302696Y-96860494D01*
X130302689Y-96860493D01*
X130199985Y-96850000D01*
X129250000Y-96850000D01*
X129250000Y-98149998D01*
X129189598Y-98124979D01*
X129064019Y-98100000D01*
X128935981Y-98100000D01*
X128810402Y-98124979D01*
X128750000Y-98149998D01*
X128750000Y-96850000D01*
X127800014Y-96850000D01*
X127697310Y-96860493D01*
X127697303Y-96860494D01*
X127530881Y-96915641D01*
X127530876Y-96915643D01*
X127381655Y-97007684D01*
X127257684Y-97131655D01*
X127165643Y-97280876D01*
X127165641Y-97280881D01*
X127110494Y-97447303D01*
X127110493Y-97447310D01*
X127100000Y-97550014D01*
X121500500Y-97550014D01*
X121500500Y-93625441D01*
X127099500Y-93625441D01*
X127099500Y-93874558D01*
X127099501Y-93874575D01*
X127131634Y-94118655D01*
X127132018Y-94121565D01*
X127189158Y-94334812D01*
X127196498Y-94362207D01*
X127291830Y-94592361D01*
X127291837Y-94592376D01*
X127416400Y-94808126D01*
X127568060Y-95005774D01*
X127568066Y-95005781D01*
X127744218Y-95181933D01*
X127744225Y-95181939D01*
X127941873Y-95333599D01*
X128157623Y-95458162D01*
X128157638Y-95458169D01*
X128256825Y-95499253D01*
X128387793Y-95553502D01*
X128628435Y-95617982D01*
X128875435Y-95650500D01*
X128875442Y-95650500D01*
X129124558Y-95650500D01*
X129124565Y-95650500D01*
X129371565Y-95617982D01*
X129612207Y-95553502D01*
X129842373Y-95458164D01*
X130058127Y-95333599D01*
X130255776Y-95181938D01*
X130431938Y-95005776D01*
X130482423Y-94939982D01*
X142899500Y-94939982D01*
X142899500Y-96740017D01*
X142910000Y-96842796D01*
X142924911Y-96887793D01*
X142965186Y-97009335D01*
X143057288Y-97158656D01*
X143181344Y-97282712D01*
X143330665Y-97374814D01*
X143497202Y-97429999D01*
X143599990Y-97440500D01*
X143599995Y-97440500D01*
X145400005Y-97440500D01*
X145400010Y-97440500D01*
X145502798Y-97429999D01*
X145669335Y-97374814D01*
X145818656Y-97282712D01*
X145942712Y-97158656D01*
X146034814Y-97009335D01*
X146089999Y-96842798D01*
X146100500Y-96740010D01*
X146100500Y-95714038D01*
X147399500Y-95714038D01*
X147399500Y-95965961D01*
X147438910Y-96214785D01*
X147516760Y-96454383D01*
X147631132Y-96678848D01*
X147779201Y-96882649D01*
X147779205Y-96882654D01*
X147957345Y-97060794D01*
X147957350Y-97060798D01*
X148135117Y-97189952D01*
X148161155Y-97208870D01*
X148275660Y-97267213D01*
X148385616Y-97323239D01*
X148385618Y-97323239D01*
X148385621Y-97323241D01*
X148625215Y-97401090D01*
X148874038Y-97440500D01*
X148874039Y-97440500D01*
X149125961Y-97440500D01*
X149125962Y-97440500D01*
X149374785Y-97401090D01*
X149614379Y-97323241D01*
X149838845Y-97208870D01*
X150042656Y-97060793D01*
X150220793Y-96882656D01*
X150368870Y-96678845D01*
X150483241Y-96454379D01*
X150527668Y-96317648D01*
X154329500Y-96317648D01*
X154329500Y-96522351D01*
X154361522Y-96724534D01*
X154424781Y-96919223D01*
X154517715Y-97101613D01*
X154638028Y-97267213D01*
X154782786Y-97411971D01*
X154937749Y-97524556D01*
X154948390Y-97532287D01*
X155039840Y-97578883D01*
X155041080Y-97579515D01*
X155091876Y-97627490D01*
X155108671Y-97695311D01*
X155086134Y-97761446D01*
X155041080Y-97800485D01*
X154948386Y-97847715D01*
X154782786Y-97968028D01*
X154638028Y-98112786D01*
X154517715Y-98278386D01*
X154424781Y-98460776D01*
X154361522Y-98655465D01*
X154329500Y-98857648D01*
X154329500Y-99062351D01*
X154361522Y-99264534D01*
X154424781Y-99459223D01*
X154467444Y-99542952D01*
X154514661Y-99635621D01*
X154517715Y-99641613D01*
X154638028Y-99807213D01*
X154782786Y-99951971D01*
X154921415Y-100052689D01*
X154948390Y-100072287D01*
X155039840Y-100118883D01*
X155041080Y-100119515D01*
X155091876Y-100167490D01*
X155108671Y-100235311D01*
X155086134Y-100301446D01*
X155041080Y-100340485D01*
X154948386Y-100387715D01*
X154782786Y-100508028D01*
X154638028Y-100652786D01*
X154517715Y-100818386D01*
X154424781Y-101000776D01*
X154361522Y-101195465D01*
X154329500Y-101397648D01*
X154329500Y-101602351D01*
X154361522Y-101804534D01*
X154424781Y-101999223D01*
X154488691Y-102124653D01*
X154503026Y-102152786D01*
X154517715Y-102181613D01*
X154638028Y-102347213D01*
X154782786Y-102491971D01*
X154937749Y-102604556D01*
X154948390Y-102612287D01*
X155064607Y-102671503D01*
X155130776Y-102705218D01*
X155130778Y-102705218D01*
X155130781Y-102705220D01*
X155235137Y-102739127D01*
X155325465Y-102768477D01*
X155426557Y-102784488D01*
X155527648Y-102800500D01*
X155527649Y-102800500D01*
X155732351Y-102800500D01*
X155732352Y-102800500D01*
X155934534Y-102768477D01*
X156129219Y-102705220D01*
X156311610Y-102612287D01*
X156404590Y-102544732D01*
X156477213Y-102491971D01*
X156477215Y-102491968D01*
X156477219Y-102491966D01*
X156621966Y-102347219D01*
X156621968Y-102347215D01*
X156621971Y-102347213D01*
X156674732Y-102274590D01*
X156742287Y-102181610D01*
X156835220Y-101999219D01*
X156898477Y-101804534D01*
X156930500Y-101602352D01*
X156930500Y-101397648D01*
X156898477Y-101195466D01*
X156884067Y-101151118D01*
X156843661Y-101026760D01*
X156835220Y-101000781D01*
X156835218Y-101000778D01*
X156835218Y-101000776D01*
X156791862Y-100915687D01*
X156742287Y-100818390D01*
X156715902Y-100782074D01*
X156621971Y-100652786D01*
X156477213Y-100508028D01*
X156311614Y-100387715D01*
X156273596Y-100368344D01*
X156218917Y-100340483D01*
X156168123Y-100292511D01*
X156151328Y-100224690D01*
X156173865Y-100158555D01*
X156218917Y-100119516D01*
X156311610Y-100072287D01*
X156389342Y-100015812D01*
X156477213Y-99951971D01*
X156477215Y-99951968D01*
X156477219Y-99951966D01*
X156621966Y-99807219D01*
X156621968Y-99807215D01*
X156621971Y-99807213D01*
X156700548Y-99699059D01*
X156742287Y-99641610D01*
X156835220Y-99459219D01*
X156898477Y-99264534D01*
X156930500Y-99062352D01*
X156930500Y-99062345D01*
X156930779Y-99060584D01*
X156960708Y-98997449D01*
X157020019Y-98960517D01*
X157089882Y-98961515D01*
X157140933Y-98992300D01*
X157587048Y-99438415D01*
X157587049Y-99438416D01*
X157687796Y-99539163D01*
X157691585Y-99542952D01*
X157814498Y-99625080D01*
X157814511Y-99625087D01*
X157921735Y-99669500D01*
X157951087Y-99681658D01*
X157951091Y-99681658D01*
X157951092Y-99681659D01*
X158096079Y-99710500D01*
X158096082Y-99710500D01*
X162124582Y-99710500D01*
X162191621Y-99730185D01*
X162224900Y-99761615D01*
X162258028Y-99807212D01*
X162258032Y-99807217D01*
X162402786Y-99951971D01*
X162541415Y-100052689D01*
X162568390Y-100072287D01*
X162659840Y-100118883D01*
X162661080Y-100119515D01*
X162711876Y-100167490D01*
X162728671Y-100235311D01*
X162706134Y-100301446D01*
X162661080Y-100340485D01*
X162568386Y-100387715D01*
X162402786Y-100508028D01*
X162258028Y-100652786D01*
X162137715Y-100818386D01*
X162044781Y-101000776D01*
X161981522Y-101195465D01*
X161949500Y-101397648D01*
X161949500Y-101602351D01*
X161981522Y-101804534D01*
X162044781Y-101999223D01*
X162108691Y-102124653D01*
X162123026Y-102152786D01*
X162137715Y-102181613D01*
X162258028Y-102347213D01*
X162402786Y-102491971D01*
X162557749Y-102604556D01*
X162568390Y-102612287D01*
X162684607Y-102671503D01*
X162750776Y-102705218D01*
X162750778Y-102705218D01*
X162750781Y-102705220D01*
X162855137Y-102739127D01*
X162945465Y-102768477D01*
X163046557Y-102784488D01*
X163147648Y-102800500D01*
X163147649Y-102800500D01*
X163352351Y-102800500D01*
X163352352Y-102800500D01*
X163462933Y-102782985D01*
X163543006Y-102770303D01*
X163544192Y-102770115D01*
X163554534Y-102768477D01*
X163749219Y-102705220D01*
X163931610Y-102612287D01*
X164024590Y-102544732D01*
X164097213Y-102491971D01*
X164097215Y-102491968D01*
X164097219Y-102491966D01*
X164241966Y-102347219D01*
X164241968Y-102347215D01*
X164241971Y-102347213D01*
X164294732Y-102274590D01*
X164362287Y-102181610D01*
X164455220Y-101999219D01*
X164518477Y-101804534D01*
X164550500Y-101602352D01*
X164550500Y-101397648D01*
X164518477Y-101195466D01*
X164504067Y-101151118D01*
X164463661Y-101026760D01*
X164455220Y-101000781D01*
X164455218Y-101000778D01*
X164455218Y-101000776D01*
X164411862Y-100915687D01*
X164362287Y-100818390D01*
X164335902Y-100782074D01*
X164241971Y-100652786D01*
X164097213Y-100508028D01*
X163931614Y-100387715D01*
X163893596Y-100368344D01*
X163838917Y-100340483D01*
X163833090Y-100334980D01*
X163825461Y-100332521D01*
X163808057Y-100311337D01*
X163788123Y-100292511D01*
X163786195Y-100284729D01*
X163781107Y-100278535D01*
X163777918Y-100251302D01*
X163771328Y-100224690D01*
X163773913Y-100217102D01*
X163772981Y-100209139D01*
X163785022Y-100184503D01*
X163793865Y-100158555D01*
X163800926Y-100151964D01*
X163803663Y-100146367D01*
X163821406Y-100132852D01*
X163830853Y-100124038D01*
X167149500Y-100124038D01*
X167149500Y-100375962D01*
X167188910Y-100624785D01*
X167266760Y-100864383D01*
X167381132Y-101088848D01*
X167529201Y-101292649D01*
X167529202Y-101292651D01*
X167707345Y-101470794D01*
X167707350Y-101470798D01*
X167885117Y-101599952D01*
X167911155Y-101618870D01*
X168054184Y-101691747D01*
X168135616Y-101733239D01*
X168135618Y-101733239D01*
X168135621Y-101733241D01*
X168375215Y-101811090D01*
X168624038Y-101850500D01*
X168624039Y-101850500D01*
X168875961Y-101850500D01*
X168875962Y-101850500D01*
X169124785Y-101811090D01*
X169364379Y-101733241D01*
X169588845Y-101618870D01*
X169792656Y-101470793D01*
X169970793Y-101292656D01*
X169970793Y-101292655D01*
X169970798Y-101292651D01*
X169970798Y-101292649D01*
X170041406Y-101195465D01*
X170118870Y-101088845D01*
X170233241Y-100864379D01*
X170311090Y-100624785D01*
X170350500Y-100375962D01*
X170350500Y-100124038D01*
X170311090Y-99875215D01*
X170233241Y-99635621D01*
X170233239Y-99635618D01*
X170233239Y-99635616D01*
X170184093Y-99539163D01*
X170118870Y-99411155D01*
X170087503Y-99367982D01*
X169970798Y-99207350D01*
X169970794Y-99207345D01*
X169792654Y-99029205D01*
X169792649Y-99029201D01*
X169588848Y-98881132D01*
X169588847Y-98881131D01*
X169588845Y-98881130D01*
X169486650Y-98829059D01*
X169364383Y-98766760D01*
X169124785Y-98688910D01*
X169106292Y-98685981D01*
X168875962Y-98649500D01*
X168624038Y-98649500D01*
X168499626Y-98669205D01*
X168375214Y-98688910D01*
X168135616Y-98766760D01*
X167911151Y-98881132D01*
X167707350Y-99029201D01*
X167707345Y-99029205D01*
X167529205Y-99207345D01*
X167529201Y-99207350D01*
X167381132Y-99411151D01*
X167266760Y-99635616D01*
X167188910Y-99875214D01*
X167176754Y-99951965D01*
X167149500Y-100124038D01*
X163830853Y-100124038D01*
X163830934Y-100123962D01*
X163834843Y-100121592D01*
X163931610Y-100072287D01*
X164097219Y-99951966D01*
X164241966Y-99807219D01*
X164241968Y-99807215D01*
X164241971Y-99807213D01*
X164320548Y-99699059D01*
X164362287Y-99641610D01*
X164455220Y-99459219D01*
X164518477Y-99264534D01*
X164550500Y-99062352D01*
X164550500Y-98857648D01*
X164534365Y-98755776D01*
X164518477Y-98655465D01*
X164455218Y-98460776D01*
X164421503Y-98394607D01*
X164362287Y-98278390D01*
X164354556Y-98267749D01*
X164241971Y-98112786D01*
X164097213Y-97968028D01*
X163931614Y-97847715D01*
X163925006Y-97844348D01*
X163838917Y-97800483D01*
X163788123Y-97752511D01*
X163771328Y-97684690D01*
X163793865Y-97618555D01*
X163838917Y-97579516D01*
X163931610Y-97532287D01*
X164048572Y-97447310D01*
X164097213Y-97411971D01*
X164097215Y-97411968D01*
X164097219Y-97411966D01*
X164133744Y-97375441D01*
X175349500Y-97375441D01*
X175349500Y-97624558D01*
X175349501Y-97624575D01*
X175382017Y-97871561D01*
X175446498Y-98112207D01*
X175541830Y-98342361D01*
X175541837Y-98342376D01*
X175666400Y-98558126D01*
X175818060Y-98755774D01*
X175818066Y-98755781D01*
X175994218Y-98931933D01*
X175994225Y-98931939D01*
X176191873Y-99083599D01*
X176407623Y-99208162D01*
X176407638Y-99208169D01*
X176506825Y-99249253D01*
X176637793Y-99303502D01*
X176878435Y-99367982D01*
X177125435Y-99400500D01*
X177125442Y-99400500D01*
X177374558Y-99400500D01*
X177374565Y-99400500D01*
X177621565Y-99367982D01*
X177862207Y-99303502D01*
X178092373Y-99208164D01*
X178308127Y-99083599D01*
X178505776Y-98931938D01*
X178681938Y-98755776D01*
X178833599Y-98558127D01*
X178958164Y-98342373D01*
X179053502Y-98112207D01*
X179117982Y-97871565D01*
X179150500Y-97624565D01*
X179150500Y-97375435D01*
X179117982Y-97128435D01*
X179053502Y-96887793D01*
X178985878Y-96724534D01*
X178958169Y-96657638D01*
X178958162Y-96657623D01*
X178833599Y-96441873D01*
X178681939Y-96244225D01*
X178681933Y-96244218D01*
X178505781Y-96068066D01*
X178505774Y-96068060D01*
X178308126Y-95916400D01*
X178092376Y-95791837D01*
X178092361Y-95791830D01*
X177862207Y-95696498D01*
X177621565Y-95632018D01*
X177621564Y-95632017D01*
X177621561Y-95632017D01*
X177374575Y-95599501D01*
X177374570Y-95599500D01*
X177374565Y-95599500D01*
X177125435Y-95599500D01*
X177125429Y-95599500D01*
X177125424Y-95599501D01*
X176878438Y-95632017D01*
X176637792Y-95696498D01*
X176407638Y-95791830D01*
X176407623Y-95791837D01*
X176191873Y-95916400D01*
X175994225Y-96068060D01*
X175994218Y-96068066D01*
X175818066Y-96244218D01*
X175818060Y-96244225D01*
X175666400Y-96441873D01*
X175541837Y-96657623D01*
X175541830Y-96657638D01*
X175446498Y-96887792D01*
X175382017Y-97128438D01*
X175349501Y-97375424D01*
X175349500Y-97375441D01*
X164133744Y-97375441D01*
X164241966Y-97267219D01*
X164241968Y-97267215D01*
X164241971Y-97267213D01*
X164342795Y-97128438D01*
X164362287Y-97101610D01*
X164455220Y-96919219D01*
X164518477Y-96724534D01*
X164550500Y-96522352D01*
X164550500Y-96317648D01*
X164518477Y-96115466D01*
X164455220Y-95920781D01*
X164455218Y-95920778D01*
X164455218Y-95920776D01*
X164421503Y-95854607D01*
X164362287Y-95738390D01*
X164354556Y-95727749D01*
X164241971Y-95572786D01*
X164097213Y-95428028D01*
X163931614Y-95307715D01*
X163924884Y-95304286D01*
X163838917Y-95260483D01*
X163788123Y-95212511D01*
X163771328Y-95144690D01*
X163793865Y-95078555D01*
X163838917Y-95039516D01*
X163931610Y-94992287D01*
X163952770Y-94976913D01*
X164097213Y-94871971D01*
X164097215Y-94871968D01*
X164097219Y-94871966D01*
X164241966Y-94727219D01*
X164241968Y-94727215D01*
X164241971Y-94727213D01*
X164294732Y-94654590D01*
X164362287Y-94561610D01*
X164455220Y-94379219D01*
X164518477Y-94184534D01*
X164550500Y-93982352D01*
X164550500Y-93777648D01*
X164532696Y-93665237D01*
X164518477Y-93575465D01*
X164455218Y-93380776D01*
X164421503Y-93314607D01*
X164362287Y-93198390D01*
X164331140Y-93155519D01*
X164241971Y-93032786D01*
X164097213Y-92888028D01*
X163931613Y-92767715D01*
X163931612Y-92767714D01*
X163931610Y-92767713D01*
X163872675Y-92737684D01*
X163749223Y-92674781D01*
X163554534Y-92611522D01*
X163379995Y-92583878D01*
X163352352Y-92579500D01*
X163147648Y-92579500D01*
X163123329Y-92583351D01*
X162945465Y-92611522D01*
X162750776Y-92674781D01*
X162568386Y-92767715D01*
X162402786Y-92888028D01*
X162258028Y-93032786D01*
X162137715Y-93198386D01*
X162044781Y-93380776D01*
X161981522Y-93575465D01*
X161949500Y-93777648D01*
X161949500Y-93982351D01*
X161981522Y-94184534D01*
X162044781Y-94379223D01*
X162091611Y-94471130D01*
X162117196Y-94521344D01*
X162137715Y-94561613D01*
X162258028Y-94727213D01*
X162402786Y-94871971D01*
X162557749Y-94984556D01*
X162568390Y-94992287D01*
X162659840Y-95038883D01*
X162661080Y-95039515D01*
X162711876Y-95087490D01*
X162728671Y-95155311D01*
X162706134Y-95221446D01*
X162661080Y-95260485D01*
X162568386Y-95307715D01*
X162402786Y-95428028D01*
X162258028Y-95572786D01*
X162137715Y-95738386D01*
X162044781Y-95920776D01*
X161981522Y-96115465D01*
X161949500Y-96317648D01*
X161949500Y-96522351D01*
X161981522Y-96724534D01*
X162044781Y-96919223D01*
X162137715Y-97101613D01*
X162258028Y-97267213D01*
X162402786Y-97411971D01*
X162557749Y-97524556D01*
X162568390Y-97532287D01*
X162659840Y-97578883D01*
X162661080Y-97579515D01*
X162711876Y-97627490D01*
X162728671Y-97695311D01*
X162706134Y-97761446D01*
X162661080Y-97800485D01*
X162568386Y-97847715D01*
X162402786Y-97968028D01*
X162258032Y-98112782D01*
X162258028Y-98112787D01*
X162224900Y-98158385D01*
X162169571Y-98201051D01*
X162124582Y-98209500D01*
X158532229Y-98209500D01*
X158465190Y-98189815D01*
X158444548Y-98173181D01*
X156956473Y-96685106D01*
X156922988Y-96623783D01*
X156921681Y-96578028D01*
X156930500Y-96522352D01*
X156930500Y-96317648D01*
X156898477Y-96115466D01*
X156835220Y-95920781D01*
X156835218Y-95920778D01*
X156835218Y-95920776D01*
X156801503Y-95854607D01*
X156742287Y-95738390D01*
X156734556Y-95727749D01*
X156621971Y-95572786D01*
X156477217Y-95428032D01*
X156477212Y-95428028D01*
X156383051Y-95359616D01*
X156340385Y-95304286D01*
X156334406Y-95234673D01*
X156367012Y-95172878D01*
X156416933Y-95141592D01*
X156499117Y-95114359D01*
X156499124Y-95114356D01*
X156648345Y-95022315D01*
X156772315Y-94898345D01*
X156864356Y-94749124D01*
X156864358Y-94749119D01*
X156919505Y-94582697D01*
X156919506Y-94582690D01*
X156929999Y-94479986D01*
X156930000Y-94479973D01*
X156930000Y-94130000D01*
X155945686Y-94130000D01*
X155950080Y-94125606D01*
X156002741Y-94034394D01*
X156030000Y-93932661D01*
X156030000Y-93827339D01*
X156002741Y-93725606D01*
X155950080Y-93634394D01*
X155945686Y-93630000D01*
X156929999Y-93630000D01*
X156929999Y-93280028D01*
X156929998Y-93280013D01*
X156919505Y-93177302D01*
X156864358Y-93010880D01*
X156864356Y-93010875D01*
X156772315Y-92861654D01*
X156648345Y-92737684D01*
X156499124Y-92645643D01*
X156499119Y-92645641D01*
X156332697Y-92590494D01*
X156332690Y-92590493D01*
X156229986Y-92580000D01*
X155880000Y-92580000D01*
X155880000Y-93564314D01*
X155875606Y-93559920D01*
X155784394Y-93507259D01*
X155682661Y-93480000D01*
X155577339Y-93480000D01*
X155475606Y-93507259D01*
X155384394Y-93559920D01*
X155380000Y-93564314D01*
X155380000Y-92580000D01*
X155030028Y-92580000D01*
X155030012Y-92580001D01*
X154927302Y-92590494D01*
X154760880Y-92645641D01*
X154760875Y-92645643D01*
X154611654Y-92737684D01*
X154487684Y-92861654D01*
X154395643Y-93010875D01*
X154395641Y-93010880D01*
X154340494Y-93177302D01*
X154340493Y-93177309D01*
X154330000Y-93280013D01*
X154330000Y-93630000D01*
X155314314Y-93630000D01*
X155309920Y-93634394D01*
X155257259Y-93725606D01*
X155230000Y-93827339D01*
X155230000Y-93932661D01*
X155257259Y-94034394D01*
X155309920Y-94125606D01*
X155314314Y-94130000D01*
X154330001Y-94130000D01*
X154330001Y-94479986D01*
X154340494Y-94582697D01*
X154395641Y-94749119D01*
X154395643Y-94749124D01*
X154487684Y-94898345D01*
X154611654Y-95022315D01*
X154760875Y-95114356D01*
X154760882Y-95114359D01*
X154843067Y-95141592D01*
X154900512Y-95181364D01*
X154927336Y-95245880D01*
X154915021Y-95314656D01*
X154876949Y-95359616D01*
X154782787Y-95428028D01*
X154782782Y-95428032D01*
X154638028Y-95572786D01*
X154517715Y-95738386D01*
X154424781Y-95920776D01*
X154361522Y-96115465D01*
X154329500Y-96317648D01*
X150527668Y-96317648D01*
X150561090Y-96214785D01*
X150600500Y-95965962D01*
X150600500Y-95714038D01*
X150561090Y-95465215D01*
X150483241Y-95225621D01*
X150483239Y-95225618D01*
X150483239Y-95225616D01*
X150426549Y-95114356D01*
X150368870Y-95001155D01*
X150324425Y-94939982D01*
X150220798Y-94797350D01*
X150220794Y-94797345D01*
X150042654Y-94619205D01*
X150042649Y-94619201D01*
X149838848Y-94471132D01*
X149838847Y-94471131D01*
X149838845Y-94471130D01*
X149768747Y-94435413D01*
X149614383Y-94356760D01*
X149374785Y-94278910D01*
X149125962Y-94239500D01*
X148874038Y-94239500D01*
X148749626Y-94259205D01*
X148625214Y-94278910D01*
X148385616Y-94356760D01*
X148161151Y-94471132D01*
X147957350Y-94619201D01*
X147957345Y-94619205D01*
X147779205Y-94797345D01*
X147779201Y-94797350D01*
X147631132Y-95001151D01*
X147516760Y-95225616D01*
X147438910Y-95465214D01*
X147399500Y-95714038D01*
X146100500Y-95714038D01*
X146100500Y-94939990D01*
X146089999Y-94837202D01*
X146034814Y-94670665D01*
X145942712Y-94521344D01*
X145818656Y-94397288D01*
X145669335Y-94305186D01*
X145502798Y-94250001D01*
X145502796Y-94250000D01*
X145400017Y-94239500D01*
X145400010Y-94239500D01*
X143599990Y-94239500D01*
X143599982Y-94239500D01*
X143497203Y-94250000D01*
X143497202Y-94250001D01*
X143416452Y-94276759D01*
X143330667Y-94305185D01*
X143330662Y-94305187D01*
X143181342Y-94397289D01*
X143057289Y-94521342D01*
X142965187Y-94670662D01*
X142965186Y-94670665D01*
X142910001Y-94837202D01*
X142910001Y-94837203D01*
X142910000Y-94837203D01*
X142899500Y-94939982D01*
X130482423Y-94939982D01*
X130583599Y-94808127D01*
X130708164Y-94592373D01*
X130803502Y-94362207D01*
X130867982Y-94121565D01*
X130900500Y-93874565D01*
X130900500Y-93625435D01*
X130867982Y-93378435D01*
X130803502Y-93137793D01*
X130708164Y-92907627D01*
X130583599Y-92691873D01*
X130529063Y-92620800D01*
X130431939Y-92494225D01*
X130431933Y-92494218D01*
X130255781Y-92318066D01*
X130255774Y-92318060D01*
X130185673Y-92264270D01*
X138000000Y-92264270D01*
X138000000Y-92500375D01*
X138036934Y-92733570D01*
X138109897Y-92958125D01*
X138217087Y-93168497D01*
X138277338Y-93251427D01*
X138277340Y-93251428D01*
X139017037Y-92511731D01*
X139034075Y-92575316D01*
X139099901Y-92689330D01*
X139192993Y-92782422D01*
X139307007Y-92848248D01*
X139370590Y-92865285D01*
X138630893Y-93604981D01*
X138713828Y-93665237D01*
X138924197Y-93772425D01*
X139148752Y-93845388D01*
X139148751Y-93845388D01*
X139381948Y-93882323D01*
X139618052Y-93882323D01*
X139851247Y-93845388D01*
X140075802Y-93772425D01*
X140286163Y-93665241D01*
X140286169Y-93665237D01*
X140369104Y-93604981D01*
X140369105Y-93604981D01*
X139629408Y-92865285D01*
X139692993Y-92848248D01*
X139807007Y-92782422D01*
X139900099Y-92689330D01*
X139965925Y-92575316D01*
X139982962Y-92511732D01*
X140722658Y-93251428D01*
X140722658Y-93251427D01*
X140782914Y-93168492D01*
X140782918Y-93168486D01*
X140789528Y-93155513D01*
X151299500Y-93155513D01*
X151299500Y-93344486D01*
X151329059Y-93531118D01*
X151387454Y-93710836D01*
X151434311Y-93802797D01*
X151473240Y-93879199D01*
X151584310Y-94032073D01*
X151717927Y-94165690D01*
X151870801Y-94276760D01*
X151950347Y-94317290D01*
X152039163Y-94362545D01*
X152039165Y-94362545D01*
X152039168Y-94362547D01*
X152123653Y-94389998D01*
X152218881Y-94420940D01*
X152405514Y-94450500D01*
X152405519Y-94450500D01*
X152594486Y-94450500D01*
X152781118Y-94420940D01*
X152844025Y-94400500D01*
X152960832Y-94362547D01*
X153129199Y-94276760D01*
X153282073Y-94165690D01*
X153415690Y-94032073D01*
X153526760Y-93879199D01*
X153612547Y-93710832D01*
X153670940Y-93531118D01*
X153695122Y-93378438D01*
X153700500Y-93344486D01*
X153700500Y-93155513D01*
X153670940Y-92968881D01*
X153612545Y-92789163D01*
X153554264Y-92674781D01*
X153526760Y-92620801D01*
X153415690Y-92467927D01*
X153282073Y-92334310D01*
X153129199Y-92223240D01*
X153062647Y-92189330D01*
X152960836Y-92137454D01*
X152781118Y-92079059D01*
X152594486Y-92049500D01*
X152594481Y-92049500D01*
X152405519Y-92049500D01*
X152405514Y-92049500D01*
X152218881Y-92079059D01*
X152039163Y-92137454D01*
X151870800Y-92223240D01*
X151814328Y-92264270D01*
X151717927Y-92334310D01*
X151717925Y-92334312D01*
X151717924Y-92334312D01*
X151584312Y-92467924D01*
X151584312Y-92467925D01*
X151584310Y-92467927D01*
X151560735Y-92500375D01*
X151473240Y-92620800D01*
X151387454Y-92789163D01*
X151329059Y-92968881D01*
X151299500Y-93155513D01*
X140789528Y-93155513D01*
X140820692Y-93094352D01*
X140890102Y-92958125D01*
X140963065Y-92733570D01*
X141000000Y-92500375D01*
X141000000Y-92264270D01*
X140963065Y-92031075D01*
X140890102Y-91806520D01*
X140782914Y-91596151D01*
X140722658Y-91513217D01*
X140722658Y-91513216D01*
X139982962Y-92252913D01*
X139965925Y-92189330D01*
X139900099Y-92075316D01*
X139807007Y-91982224D01*
X139692993Y-91916398D01*
X139629409Y-91899360D01*
X140369105Y-91159663D01*
X140369104Y-91159661D01*
X140286174Y-91099410D01*
X140075802Y-90992220D01*
X139851247Y-90919257D01*
X139851248Y-90919257D01*
X139618052Y-90882323D01*
X139381948Y-90882323D01*
X139148752Y-90919257D01*
X138924197Y-90992220D01*
X138713830Y-91099407D01*
X138630894Y-91159663D01*
X139370591Y-91899360D01*
X139307007Y-91916398D01*
X139192993Y-91982224D01*
X139099901Y-92075316D01*
X139034075Y-92189330D01*
X139017037Y-92252914D01*
X138277340Y-91513217D01*
X138217084Y-91596153D01*
X138109897Y-91806520D01*
X138036934Y-92031075D01*
X138000000Y-92264270D01*
X130185673Y-92264270D01*
X130058126Y-92166400D01*
X129842376Y-92041837D01*
X129842361Y-92041830D01*
X129612207Y-91946498D01*
X129371565Y-91882018D01*
X129371564Y-91882017D01*
X129371561Y-91882017D01*
X129124575Y-91849501D01*
X129124570Y-91849500D01*
X129124565Y-91849500D01*
X128875435Y-91849500D01*
X128875429Y-91849500D01*
X128875424Y-91849501D01*
X128628438Y-91882017D01*
X128387792Y-91946498D01*
X128157638Y-92041830D01*
X128157623Y-92041837D01*
X127941873Y-92166400D01*
X127744225Y-92318060D01*
X127744218Y-92318066D01*
X127568066Y-92494218D01*
X127568060Y-92494225D01*
X127416400Y-92691873D01*
X127291837Y-92907623D01*
X127291830Y-92907638D01*
X127196498Y-93137792D01*
X127132017Y-93378438D01*
X127099501Y-93625424D01*
X127099500Y-93625441D01*
X121500500Y-93625441D01*
X121500500Y-89189982D01*
X167149500Y-89189982D01*
X167149500Y-90990007D01*
X167160000Y-91092796D01*
X167215185Y-91259332D01*
X167215187Y-91259337D01*
X167250070Y-91315890D01*
X167307288Y-91408656D01*
X167431344Y-91532712D01*
X167580665Y-91624814D01*
X167747202Y-91679999D01*
X167849990Y-91690500D01*
X167849995Y-91690500D01*
X169650005Y-91690500D01*
X169650010Y-91690500D01*
X169752798Y-91679999D01*
X169919335Y-91624814D01*
X170068656Y-91532712D01*
X170192712Y-91408656D01*
X170259741Y-91299984D01*
X175349500Y-91299984D01*
X175349500Y-93700015D01*
X175360000Y-93802795D01*
X175360001Y-93802797D01*
X175374114Y-93845388D01*
X175415186Y-93969335D01*
X175415187Y-93969337D01*
X175507286Y-94118651D01*
X175507289Y-94118655D01*
X175631344Y-94242710D01*
X175631348Y-94242713D01*
X175780662Y-94334812D01*
X175780664Y-94334813D01*
X175780666Y-94334814D01*
X175947203Y-94389999D01*
X176049992Y-94400500D01*
X176049997Y-94400500D01*
X178450003Y-94400500D01*
X178450008Y-94400500D01*
X178552797Y-94389999D01*
X178719334Y-94334814D01*
X178868655Y-94242711D01*
X178992711Y-94118655D01*
X179084814Y-93969334D01*
X179139999Y-93802797D01*
X179150500Y-93700008D01*
X179150500Y-91299992D01*
X179139999Y-91197203D01*
X179084814Y-91030666D01*
X178992711Y-90881345D01*
X178868655Y-90757289D01*
X178868651Y-90757286D01*
X178719337Y-90665187D01*
X178719335Y-90665186D01*
X178636065Y-90637593D01*
X178552797Y-90610001D01*
X178552795Y-90610000D01*
X178450015Y-90599500D01*
X178450008Y-90599500D01*
X176049992Y-90599500D01*
X176049984Y-90599500D01*
X175947204Y-90610000D01*
X175947203Y-90610001D01*
X175780664Y-90665186D01*
X175780662Y-90665187D01*
X175631348Y-90757286D01*
X175631344Y-90757289D01*
X175507289Y-90881344D01*
X175507286Y-90881348D01*
X175415187Y-91030662D01*
X175415186Y-91030664D01*
X175360001Y-91197203D01*
X175360000Y-91197204D01*
X175349500Y-91299984D01*
X170259741Y-91299984D01*
X170284814Y-91259335D01*
X170339999Y-91092798D01*
X170350500Y-90990010D01*
X170350500Y-89189990D01*
X170339999Y-89087202D01*
X170284814Y-88920665D01*
X170192712Y-88771344D01*
X170068656Y-88647288D01*
X169919335Y-88555186D01*
X169752798Y-88500001D01*
X169752796Y-88500000D01*
X169650017Y-88489500D01*
X169650010Y-88489500D01*
X167849990Y-88489500D01*
X167849982Y-88489500D01*
X167747203Y-88500000D01*
X167747202Y-88500001D01*
X167664669Y-88527349D01*
X167580667Y-88555185D01*
X167580662Y-88555187D01*
X167431342Y-88647289D01*
X167307289Y-88771342D01*
X167215187Y-88920662D01*
X167215186Y-88920665D01*
X167160001Y-89087202D01*
X167160001Y-89087203D01*
X167160000Y-89087203D01*
X167149500Y-89189982D01*
X121500500Y-89189982D01*
X121500500Y-86582306D01*
X137999500Y-86582306D01*
X137999500Y-88182324D01*
X137999501Y-88182341D01*
X138010000Y-88285119D01*
X138010001Y-88285122D01*
X138065185Y-88451654D01*
X138065186Y-88451657D01*
X138157288Y-88600979D01*
X138281344Y-88725035D01*
X138430666Y-88817137D01*
X138597203Y-88872322D01*
X138699991Y-88882823D01*
X140300008Y-88882822D01*
X140402797Y-88872322D01*
X140569334Y-88817137D01*
X140718656Y-88725035D01*
X140842712Y-88600979D01*
X140934814Y-88451657D01*
X140989999Y-88285120D01*
X141000500Y-88182332D01*
X141000499Y-86582315D01*
X140989999Y-86479526D01*
X140934814Y-86312989D01*
X140842712Y-86163667D01*
X140718656Y-86039611D01*
X140569334Y-85947509D01*
X140402797Y-85892324D01*
X140402795Y-85892323D01*
X140300010Y-85881823D01*
X138699998Y-85881823D01*
X138699981Y-85881824D01*
X138597203Y-85892323D01*
X138597200Y-85892324D01*
X138430668Y-85947508D01*
X138430663Y-85947510D01*
X138281342Y-86039612D01*
X138157289Y-86163665D01*
X138065187Y-86312986D01*
X138065186Y-86312989D01*
X138010001Y-86479526D01*
X138010001Y-86479527D01*
X138010000Y-86479527D01*
X137999500Y-86582306D01*
X121500500Y-86582306D01*
X121500500Y-83944681D01*
X121520185Y-83877642D01*
X121572989Y-83831887D01*
X121642147Y-83821943D01*
X121705703Y-83850968D01*
X121712181Y-83857000D01*
X121897915Y-84042734D01*
X122108711Y-84210838D01*
X122337003Y-84354284D01*
X122579921Y-84471267D01*
X122771049Y-84538145D01*
X122834397Y-84560312D01*
X122834405Y-84560315D01*
X122834408Y-84560315D01*
X122834409Y-84560316D01*
X123097268Y-84620312D01*
X123365187Y-84650499D01*
X123365188Y-84650500D01*
X123365191Y-84650500D01*
X123634812Y-84650500D01*
X123634812Y-84650499D01*
X123902732Y-84620312D01*
X124165591Y-84560316D01*
X124420079Y-84471267D01*
X124662997Y-84354284D01*
X124891289Y-84210838D01*
X125037960Y-84093872D01*
X148874500Y-84093872D01*
X148874500Y-84356127D01*
X148891824Y-84487708D01*
X148908730Y-84616116D01*
X148974575Y-84861854D01*
X148976602Y-84869418D01*
X148976605Y-84869428D01*
X149076953Y-85111690D01*
X149076958Y-85111700D01*
X149208075Y-85338803D01*
X149367718Y-85546851D01*
X149367726Y-85546860D01*
X149553140Y-85732274D01*
X149553148Y-85732281D01*
X149553149Y-85732282D01*
X149601554Y-85769424D01*
X149761196Y-85891924D01*
X149988299Y-86023041D01*
X149988309Y-86023046D01*
X150159726Y-86094049D01*
X150230581Y-86123398D01*
X150483884Y-86191270D01*
X150732188Y-86223960D01*
X150743864Y-86225498D01*
X150743880Y-86225500D01*
X150743887Y-86225500D01*
X151006113Y-86225500D01*
X151006120Y-86225500D01*
X151266116Y-86191270D01*
X151519419Y-86123398D01*
X151761697Y-86023043D01*
X151988803Y-85891924D01*
X152196851Y-85732282D01*
X152196855Y-85732277D01*
X152196860Y-85732274D01*
X152382274Y-85546860D01*
X152382277Y-85546855D01*
X152382282Y-85546851D01*
X152541924Y-85338803D01*
X152673043Y-85111697D01*
X152773398Y-84869419D01*
X152841270Y-84616116D01*
X152875500Y-84356120D01*
X152875500Y-84093880D01*
X152875499Y-84093872D01*
X153874500Y-84093872D01*
X153874500Y-84356127D01*
X153891824Y-84487708D01*
X153908730Y-84616116D01*
X153974575Y-84861854D01*
X153976602Y-84869418D01*
X153976605Y-84869428D01*
X154076953Y-85111690D01*
X154076958Y-85111700D01*
X154208075Y-85338803D01*
X154367718Y-85546851D01*
X154367726Y-85546860D01*
X154553140Y-85732274D01*
X154553148Y-85732281D01*
X154553149Y-85732282D01*
X154601554Y-85769424D01*
X154761196Y-85891924D01*
X154988299Y-86023041D01*
X154988309Y-86023046D01*
X155159726Y-86094049D01*
X155230581Y-86123398D01*
X155483884Y-86191270D01*
X155732188Y-86223960D01*
X155743864Y-86225498D01*
X155743880Y-86225500D01*
X155743887Y-86225500D01*
X156006113Y-86225500D01*
X156006120Y-86225500D01*
X156266116Y-86191270D01*
X156519419Y-86123398D01*
X156761697Y-86023043D01*
X156988803Y-85891924D01*
X157196851Y-85732282D01*
X157196855Y-85732277D01*
X157196860Y-85732274D01*
X157382274Y-85546860D01*
X157382277Y-85546855D01*
X157382282Y-85546851D01*
X157541924Y-85338803D01*
X157673043Y-85111697D01*
X157773398Y-84869419D01*
X157841270Y-84616116D01*
X157875500Y-84356120D01*
X157875500Y-84093880D01*
X157841270Y-83833884D01*
X157773398Y-83580581D01*
X157773058Y-83579759D01*
X157673046Y-83338309D01*
X157673041Y-83338299D01*
X157541924Y-83111196D01*
X157419424Y-82951554D01*
X157382282Y-82903149D01*
X157382281Y-82903148D01*
X157382274Y-82903140D01*
X157196860Y-82717726D01*
X157196851Y-82717718D01*
X157143963Y-82677135D01*
X158874500Y-82677135D01*
X158874500Y-85772870D01*
X158874501Y-85772876D01*
X158880908Y-85832483D01*
X158931202Y-85967328D01*
X158931206Y-85967335D01*
X159017452Y-86082544D01*
X159017455Y-86082547D01*
X159132664Y-86168793D01*
X159132671Y-86168797D01*
X159267517Y-86219091D01*
X159267516Y-86219091D01*
X159274444Y-86219835D01*
X159327127Y-86225500D01*
X162422872Y-86225499D01*
X162482483Y-86219091D01*
X162617331Y-86168796D01*
X162732546Y-86082546D01*
X162818796Y-85967331D01*
X162869091Y-85832483D01*
X162875500Y-85772873D01*
X162875499Y-83652135D01*
X168007000Y-83652135D01*
X168007000Y-85747870D01*
X168007001Y-85747876D01*
X168013408Y-85807483D01*
X168063702Y-85942328D01*
X168063706Y-85942335D01*
X168149952Y-86057544D01*
X168149955Y-86057547D01*
X168265164Y-86143793D01*
X168265171Y-86143797D01*
X168400017Y-86194091D01*
X168400016Y-86194091D01*
X168406944Y-86194835D01*
X168459627Y-86200500D01*
X170460372Y-86200499D01*
X170519983Y-86194091D01*
X170654831Y-86143796D01*
X170770046Y-86057546D01*
X170856296Y-85942331D01*
X170866690Y-85914460D01*
X170908560Y-85858527D01*
X170974023Y-85834108D01*
X171042297Y-85848958D01*
X171055746Y-85857465D01*
X171238462Y-85990217D01*
X171370599Y-86057544D01*
X171442244Y-86094049D01*
X171659751Y-86164721D01*
X171659752Y-86164721D01*
X171659755Y-86164722D01*
X171885646Y-86200500D01*
X171885647Y-86200500D01*
X172114353Y-86200500D01*
X172114354Y-86200500D01*
X172340245Y-86164722D01*
X172340248Y-86164721D01*
X172340249Y-86164721D01*
X172557755Y-86094049D01*
X172557755Y-86094048D01*
X172557758Y-86094048D01*
X172761538Y-85990217D01*
X172946566Y-85855786D01*
X173108286Y-85694066D01*
X173169992Y-85609134D01*
X173225319Y-85566470D01*
X173294932Y-85560491D01*
X173356727Y-85593096D01*
X173370626Y-85609135D01*
X173432097Y-85693741D01*
X173432097Y-85693742D01*
X173593757Y-85855402D01*
X173778723Y-85989788D01*
X173982429Y-86093582D01*
X174199871Y-86164234D01*
X174290000Y-86178509D01*
X174290000Y-85190747D01*
X174327708Y-85212518D01*
X174467591Y-85250000D01*
X174612409Y-85250000D01*
X174752292Y-85212518D01*
X174790000Y-85190747D01*
X174790000Y-86178508D01*
X174880128Y-86164234D01*
X175097570Y-86093582D01*
X175301276Y-85989788D01*
X175486242Y-85855402D01*
X175647902Y-85693742D01*
X175782288Y-85508776D01*
X175886082Y-85305070D01*
X175956734Y-85087628D01*
X175978532Y-84950000D01*
X175030748Y-84950000D01*
X175052518Y-84912292D01*
X175090000Y-84772409D01*
X175090000Y-84627591D01*
X175052518Y-84487708D01*
X175030748Y-84450000D01*
X175978532Y-84450000D01*
X175956734Y-84312371D01*
X175886082Y-84094929D01*
X175782288Y-83891223D01*
X175647902Y-83706257D01*
X175486242Y-83544597D01*
X175301276Y-83410211D01*
X175097568Y-83306417D01*
X174880124Y-83235765D01*
X174790000Y-83221490D01*
X174790000Y-84209252D01*
X174752292Y-84187482D01*
X174612409Y-84150000D01*
X174467591Y-84150000D01*
X174327708Y-84187482D01*
X174290000Y-84209252D01*
X174290000Y-83221490D01*
X174289999Y-83221490D01*
X174199875Y-83235765D01*
X173982431Y-83306417D01*
X173778723Y-83410211D01*
X173593757Y-83544597D01*
X173432097Y-83706257D01*
X173370627Y-83790864D01*
X173315297Y-83833529D01*
X173245684Y-83839508D01*
X173183889Y-83806902D01*
X173169991Y-83790864D01*
X173108286Y-83705934D01*
X172946566Y-83544214D01*
X172761538Y-83409783D01*
X172557755Y-83305950D01*
X172340248Y-83235278D01*
X172154812Y-83205908D01*
X172114354Y-83199500D01*
X171885646Y-83199500D01*
X171845188Y-83205908D01*
X171659753Y-83235278D01*
X171659750Y-83235278D01*
X171442244Y-83305950D01*
X171238461Y-83409783D01*
X171055759Y-83542525D01*
X170989952Y-83566005D01*
X170921898Y-83550180D01*
X170873203Y-83500074D01*
X170866690Y-83485538D01*
X170856296Y-83457669D01*
X170856293Y-83457664D01*
X170770047Y-83342455D01*
X170770044Y-83342452D01*
X170654835Y-83256206D01*
X170654828Y-83256202D01*
X170519982Y-83205908D01*
X170519983Y-83205908D01*
X170460383Y-83199501D01*
X170460381Y-83199500D01*
X170460373Y-83199500D01*
X170460364Y-83199500D01*
X168459629Y-83199500D01*
X168459623Y-83199501D01*
X168400016Y-83205908D01*
X168265171Y-83256202D01*
X168265164Y-83256206D01*
X168149955Y-83342452D01*
X168149952Y-83342455D01*
X168063706Y-83457664D01*
X168063702Y-83457671D01*
X168013408Y-83592517D01*
X168007001Y-83652116D01*
X168007000Y-83652135D01*
X162875499Y-83652135D01*
X162875499Y-82677128D01*
X162869091Y-82617517D01*
X162818796Y-82482669D01*
X162818795Y-82482668D01*
X162818793Y-82482664D01*
X162732547Y-82367455D01*
X162732544Y-82367452D01*
X162617335Y-82281206D01*
X162617328Y-82281202D01*
X162482482Y-82230908D01*
X162482483Y-82230908D01*
X162422883Y-82224501D01*
X162422881Y-82224500D01*
X162422873Y-82224500D01*
X162422864Y-82224500D01*
X159327129Y-82224500D01*
X159327123Y-82224501D01*
X159267516Y-82230908D01*
X159132671Y-82281202D01*
X159132664Y-82281206D01*
X159017455Y-82367452D01*
X159017452Y-82367455D01*
X158931206Y-82482664D01*
X158931202Y-82482671D01*
X158880908Y-82617517D01*
X158874501Y-82677116D01*
X158874501Y-82677123D01*
X158874500Y-82677135D01*
X157143963Y-82677135D01*
X156988803Y-82558075D01*
X156761700Y-82426958D01*
X156761690Y-82426953D01*
X156519428Y-82326605D01*
X156519421Y-82326603D01*
X156519419Y-82326602D01*
X156266116Y-82258730D01*
X156208339Y-82251123D01*
X156006127Y-82224500D01*
X156006120Y-82224500D01*
X155743880Y-82224500D01*
X155743872Y-82224500D01*
X155512772Y-82254926D01*
X155483884Y-82258730D01*
X155230581Y-82326602D01*
X155230571Y-82326605D01*
X154988309Y-82426953D01*
X154988299Y-82426958D01*
X154761196Y-82558075D01*
X154553148Y-82717718D01*
X154367718Y-82903148D01*
X154208075Y-83111196D01*
X154076958Y-83338299D01*
X154076953Y-83338309D01*
X153976605Y-83580571D01*
X153976602Y-83580581D01*
X153911509Y-83823515D01*
X153908730Y-83833885D01*
X153874500Y-84093872D01*
X152875499Y-84093872D01*
X152841270Y-83833884D01*
X152773398Y-83580581D01*
X152773058Y-83579759D01*
X152673046Y-83338309D01*
X152673041Y-83338299D01*
X152541924Y-83111196D01*
X152419424Y-82951554D01*
X152382282Y-82903149D01*
X152382281Y-82903148D01*
X152382274Y-82903140D01*
X152196860Y-82717726D01*
X152196851Y-82717718D01*
X151988803Y-82558075D01*
X151761700Y-82426958D01*
X151761690Y-82426953D01*
X151519428Y-82326605D01*
X151519421Y-82326603D01*
X151519419Y-82326602D01*
X151266116Y-82258730D01*
X151208339Y-82251123D01*
X151006127Y-82224500D01*
X151006120Y-82224500D01*
X150743880Y-82224500D01*
X150743872Y-82224500D01*
X150512772Y-82254926D01*
X150483884Y-82258730D01*
X150230581Y-82326602D01*
X150230571Y-82326605D01*
X149988309Y-82426953D01*
X149988299Y-82426958D01*
X149761196Y-82558075D01*
X149553148Y-82717718D01*
X149367718Y-82903148D01*
X149208075Y-83111196D01*
X149076958Y-83338299D01*
X149076953Y-83338309D01*
X148976605Y-83580571D01*
X148976602Y-83580581D01*
X148911509Y-83823515D01*
X148908730Y-83833885D01*
X148874500Y-84093872D01*
X125037960Y-84093872D01*
X125102085Y-84042734D01*
X125292734Y-83852085D01*
X125460838Y-83641289D01*
X125604284Y-83412997D01*
X125721267Y-83170079D01*
X125810316Y-82915591D01*
X125870312Y-82652732D01*
X125900500Y-82384809D01*
X125900500Y-82115191D01*
X125870312Y-81847268D01*
X125810316Y-81584409D01*
X125721267Y-81329921D01*
X125604284Y-81087003D01*
X125460838Y-80858711D01*
X125292734Y-80647915D01*
X125107000Y-80462181D01*
X125073515Y-80400858D01*
X125078499Y-80331166D01*
X125120371Y-80275233D01*
X125185835Y-80250816D01*
X125194681Y-80250500D01*
X182055319Y-80250500D01*
X182122358Y-80270185D01*
G37*
%TD.AperFunction*%
%TD*%
M02*
